<?xml version="1.0" encoding="utf-8"?>
<!-- Generator: Adobe Illustrator 19.0.0, SVG Export Plug-In . SVG Version: 6.00 Build 0)  -->
<svg version="1.1" id="Layer_1" xmlns="http://www.w3.org/2000/svg" xmlns:xlink="http://www.w3.org/1999/xlink" x="0px" y="0px"
	 viewBox="108.3 67.3 415.2 567.6" style="enable-background:new 108.3 67.3 415.2 567.6;" xml:space="preserve">
<style type="text/css">
	.st0{fill-rule:evenodd;clip-rule:evenodd;fill:#85A461;}
	.st1{fill-rule:evenodd;clip-rule:evenodd;fill:#B4BB97;}
	.st2{fill-rule:evenodd;clip-rule:evenodd;fill:#E09C63;}
	.st3{fill-rule:evenodd;clip-rule:evenodd;fill:#F286A6;}
	.st4{fill-rule:evenodd;clip-rule:evenodd;fill:#234A6B;}
	.st5{fill-rule:evenodd;clip-rule:evenodd;fill:#91C2E8;}
	.st6{fill-rule:evenodd;clip-rule:evenodd;fill:#526A2E;}
	.st7{fill-rule:evenodd;clip-rule:evenodd;fill:#6B88A5;}
	.st8{fill-rule:evenodd;clip-rule:evenodd;fill:#7B5F41;}
	.st9{fill-rule:evenodd;clip-rule:evenodd;fill:#F8F2DB;}
	.st10{fill-rule:evenodd;clip-rule:evenodd;fill:#FABFAC;}
	.st11{fill-rule:evenodd;clip-rule:evenodd;fill:#FAFDFF;}
	.st12{fill-rule:evenodd;clip-rule:evenodd;fill:#3F74A5;}
	.st13{fill-rule:evenodd;clip-rule:evenodd;fill:#485E6F;}
</style>
<path d="M522.6,610.6L511,594.2c-9.3-11-8.1-10-11.2-29.4c-0.7-4.2-2-8.6-2.1-12.3c3.5-0.3,9.6-1.9,8.5-5.9c2-1.5,1.7,2.5,1.7-3.5
	l0.9-12.7c-0.2-17.1-12.1-83.1-13.6-110.1c-0.5-8.5,0-18.6-1.2-26.8c-1.1-7.3-1.2-19-1.3-26.7l-1.7-26.2c3.3-0.9,3.8-2.6,4.7-6.3
	c3.5-14.2,9.5-58,10.5-70.8c0.7-9.3,11.2-31,0.8-37.3c-2.4-1.5-5-2.3-7.7-3.3l-16.7-7c-5.2-2.1-5.5-3.2-8.6-2.4
	c-0.1-0.2-0.4-0.8-0.4-0.7l-2.1-3.5c11,0,20.1-4.5,23.2-14.9c0.9-3,1.1-4.4,1.6-7.7c0.3-1.9,0.3-7.2,0.8-9.4c1-4,10.6-15.5,9-29.8
	c-1-8.5-4.4-10.6-5.8-13.7c-1.3-2.8-2.4-12.7-3.2-16.3c-3.7-15.6-9.1-27.8-21.9-36.6L462.5,74c-15.4-6.4-33-9.2-49.8-4.2
	c-5.1,1.5-9.7,3.4-14.1,5.4c-2.2,1-10.3,5.3-11,7.6c-1.9,0.8-2.3,0.7-4,2c-2.4,1.7-1.8,1.6-2.8,4l-14.9,6.3
	c-12.4,7.4-20.2,23.5-18.3,37.1c0.4,2.9,0.2,3,0.9,5.1c1,2.9,1,1.1,1.8,4.1h1.7c0-5.2,0.8-6.2,0.8-11h0.8c0,7.1,1.2,11,4,15.5
	c1.7,2.8,5.7,6.7,9,7.3c0.7,0.1,1.1,0.2,1.4,0.2c0,0,0,0,0,0c-2.8-1.3,1.3,0,0,0c0.9,1.7,3.2,5.8,3.6,7.8c1.1,5.3-0.3,3.2,4.9,6.6
	c0,13.3-7.9,29.3,17.8,42.4l4.5,2.3c1.6,1,0.6,0.3,1.5,1.1c-3.2,0-6.8-0.7-9.4,3.3c-2.1,3.2-1.2,1.2-0.7,3.4c-2.5,1-0.7,0.2-2.3,1
	l-4.8,3c-5.5,3.1-2.4,1.1-8.2,1.1c-3.1-0.1-6.1-1.9-12.9-0.2c-5.2,1.3-6.6,3-9.8,6.3c-3,3.1-2.1,3.8-6.7,8.5c-4,4.1-4.5,4-12.1,4
	c1.1,3.9,5.9,6.7,9.3,8.5c6.2,3.2,9.4,1.3,13.9,2.3c2.2,0.5,6.2,2.8,12.6-3c3.1-2.8,6.7-7,6.6-10.4c0,0,0,0,0,0
	c2.8,1.2,2.7-1.8,0.1,4.3c-0.5,1.3-0.5,1.6-1.2,3c-1.2,2.5-2.4,3.7-3.1,6.2c11.3-0.9,8.8-18.3,9.6-20.9c0.8-2.9,0.7-1.9,2.5-2.6
	c3.4-1.2,2.8,1.1,4-1.9c5,2.5,7.1,1.7,13.6,1.7c-3.1,13.2-0.6,5.7-8.1,18.1l-20,34.3c-2.3,3.9-0.8,2.4-4.7,4.7
	c-5.2,3-0.6,4.1-22,14.4c-3.4,1.6-10.3,3.9-12.5,5.6c-3.7,0.7-6.9,1.7-10.3,3.4c-2.2,0-0.5-0.3-1.2,1.1c-7.5-1.7-20-3.7-27.1-0.3
	l-1.7-0.8c-0.7-2.5-0.4-1.4-1.7-3.4c-6.9,1.8-1,5.5-11.5,9.7c-7.9,3.1-6.5,5.7-9.7,12.4h-15.3c-0.2-10.6-6.3-17.4-15.6-20.9
	c-5.3-2-9.5-1.2-14-3.8c-8.9-5.2-2.9-4.6-6-11.8c2-0.5,0.5-0.5,2-0.2c1.4,0.3,18.5,10,25.8-2.6c0.6-1,0.9-1.6,1.2-2.2
	c2.3-4.5,0.6-4.2,4.9-5.2c0-4.9,0.3-3.8-1.7-6.8c2.4-0.1,8.5-1.7,9.5-3.3c0.9-1.5,0.5-2-0.1-3.6l0-1.5c4.9-0.4,5.9-3.2,5.9-8.5
	c-16.4-8.7-7.6-8.9-0.1-29.8c3.2-9.1-0.2-8.1,4.6-10.7c9.3-5,3.6-5.3,8.2-7c-0.8,1.7-0.8,6.8,0,8.5c3.7-2.5,5.6-8.4,5.1-15.2
	c-1.1-13.3-12.6-23.9-24.5-28.1c-8.7-3.1-14.9-13.8-35.1-17.5c-28.4-5.2-44.3,0.7-65.2,14.9c-23.5,15.9-25.9,56.5-15.4,78.4
	c3.5,7.3,6.4,9.6,7.9,12.4c0.6,1.5,0.7,0.2,0,2.4c0,0-0.1,0.1-0.1,0.1h0c0,0,0,0,0,0c0,0,0,0,0,0c-5.9-1.3-23.3,10.1-17.7,33.9
	c3.7,0,4.2,0.4,6.8-0.8c-0.6,7.4-6.7,19.6,7.9,32c7.1,6,10.3,5.3,21-2.3c2.4-1.7,3.5-3.5,5.9-5.1c0,7.2,2.9,18.6,4.8,24.9l7.9,22.1
	c0.4,4.4,0.3,0.4,0.9,3.1c0.4,1.8,0.4-0.2,0.3,1.8c-0.1,0.7,0,1,0.1,1.1c0.3-0.1,0.1,0.2,0,0c-0.1,0.1-0.3,0.2-0.7,0.6
	c-0.9-2.1-0.5-2.1-5.6-4.4c-28.7-12.6-20,32.9-11.9,41.2c-1.2,0.9-0.2-0.2-0.8,2c-6.6-1.4-31.8,17.9-35.1,26.8
	c-6,16,3,43.3,16.5,40.2c-0.3-3.5-2.4-5-4-7.9c-9.8-18.1-3.4-24,11.8-39.3l13.3-11.9l1.7-0.1c0.9-1.4,0.3-1.1,0.8,0.6l-0.8-0.6
	c-0.6,2.3-2.9,4.6-5.1,8.4c-5.3,8.8-8.4,19.4-11.1,29.5c-3.7,13.7-6.1,31.9,2.7,45.1c9.5,0,14.2-2.2,21.2-5.9
	c-2.1-9.2-6-20.7-6.7-30.5c-0.5-6,0-13.2,0.7-17.9c0.5-3.2,0.6-4.9,1.4-8c0.8-3.1,1.9-4.7,2.2-7.8l0.7-1c2.8,1.6,4,2.8,7.7,0.8
	c2.7-1.4,3.8-3.3,5.3-5.9l0.7,6.8c-0.2,7.3-6.3,43.6-8.1,52l-4.3,21.1c-1.6,6.9-4.7,0.9-5.3,9.9c-0.5,6.7,1.4,6.5-8.8,11.5l-14.4,6
	c-6.9,2.3,0.1,2.1-4.9,5.2c-2.1,1.3-5.1,0.9-6.7,2.6c-4.7,0-6.4,0.3-10.1-0.9c-8-2.7-11.1-3.1-17.3,10c-14,29.2-5,61.3,12.8,52.6
	c8.7-4.2,7-12.9,7-23.5c0-5.2,0.7-6,1-10.2c1-1.8,1.1-2.1,1.3-4.2l16.3,5.1c5.2,1.8,3.2,2.1,9.7,11.5c11.7,17,28.3,29.5,47.5,37.3
	c2.9,1.2,4.6,1.5,7.8,2.4c12.3,3.5,12.2,3.6,26.2,6c15,2.5,34.2-1.3,45.3-6.3c2.5-1.1,4.6-2.4,7.4-3.6c5.5-2.4,14.4-8.3,19.1-12.2
	c10.4-8.6,25-20.7,33.1-31.3c1.8-2.3,3.3-4,5.6-5.4c2.6,1.7,14.4,13.5,16.7,16.3c4.7,5.7,4.7,17.5,11,22c3.4,2.4,8.1,2.4,13.7,2.4
	c16.3-0.1,27.9,7.1,38.1-9.3c3.9-6.2,5.6-19.4-11.2-13.7c-7.5,2.5-18.6-3.1-25.9-5.1c-8.2-2.2-7.9-6.8-13.4-19.7l-7.7-22.6
	c0-0.2-0.1-0.4-0.1-0.6l-0.2-1.8c3.3,0.2,4,0.8,7.4,0.8c9.7,4,73.9,7.6,84.1,7.6c1.5,6.3,15.9,27.3,18.9,36.2
	c4.8,14.1-14.3,28.5,21,32.4C516.4,621,526.7,618.5,522.6,610.6z M361.2,227.2c1.6-0.5,3.1-0.3,5.8-0.4
	C364.3,226.9,362.8,226.7,361.2,227.2z M179.9,289.7c-0.5-2.3-1.3-3.9-2.5-5.4c-0.7-1.7-0.9-2.5-1.7-4.1c1.8-0.5,0.9-0.5,3.4,0.2
	c0.3,0.9-0.4,1.6,4.2,1.7C182.6,285,182,288.1,179.9,289.7z M365.2,323.3l1.8-0.7c1.2-0.4,1.6-0.4,3.5-0.8c2.1-0.4,4.3-0.9,6.1-1.5
	c9.7-3,13.9-3.7,19.5-11c1.1-1.4,2.1-3,3.1-4.5c0.1-0.2,0.6-0.8,0.7-1l0.6-1.1c1.8-2.8-0.2-1.2,2.2-2.9c-2.6,11-6.5,17.2-9.9,25.9
	c-2.1,5.2-0.6,2.8-0.3,2.9v3.1c-0.2,0-0.3,0-0.5,0h0c-5-2.4-7.9-2.9-13.7-4.2c-4.1-1-9.2-3-13.8-4
	C364.8,323.5,365.1,323.1,365.2,323.3z M392.1,331.8c-2.7,0-6-0.6-9.3-1.3C386.1,331.2,389.4,331.8,392.1,331.8z M283.3,343.9
	c15.7-0.1,19.9-2.3,29.7-13.5l-0.1-1.8l1.9,0.5l-1.8,1.2c0,6.1-0.8,10.5,5.1,11c3-6.2-2.1-6.8,5.9-11c5.6,3.8,3.8,5.7,13.6,3.4
	c-2.2,4.1-3.8,8.3-6.1,12.5c-2.5,4.6-9,4.3-14.2,4.5c-7.6,0.2-30.8,3.2-35.6,1.7c-0.8-1.6-7.7-5.5-9.3-5.9
	C274,344.1,277.1,343.9,283.3,343.9z M370.2,404.6c-1.5,2.2-2.7,3.9-4.1,6.1l-27,45.9c-1.1-0.7-27.3-26.6-38.6-35.1
	c-9.3-6.9-19.7-18.5-27.7-27.4c-4.6-5.1-4.7-6.8-7.4-11.5c-1-3.7-0.6-1.1,0-2.3c7,3.7,16.7,6.4,26.6,3.7c2.7-0.7,3.4-1.3,6.1-2.3
	l18-7.4c8.8-3.6,15.5-9.3,22.7-11.2c14-3.7,13.1,1.5,26.6-8.1c2-3.8,4.7-3,5.9-8.5c3.5,0.9,6,3.8,10.5,4.8c5.9,1.3,8.6-1,13.2-1.4
	c3.1,2.3,2.7,5,8.5,5.1L370.2,404.6z M482.6,575.4c3.5,7.3,6.1,14,8,21.8C488.8,589.5,486.2,582.8,482.6,575.4z"/>
<path class="st0" d="M363.9,504c-5.8,2.8-9.8,5.9-14.4-1.7c-3.5-5.8-3-10-0.2-15c3.5,1.2,1,0.1,1.7,1.4c2.4,1.5,3.2,2.6,5.8,3.6
	c-0.4-8.1-2.5-5.2-5.8-6.8c-0.8-5.8,3.1-2.2-1.2-8.8c-7.6-11.6-14.7-22.1-25.3-30.7c-5.8-4.7-13.6-14.1-23.8-21.2
	c-5.4-3.8-17.7-16.4-23.2-21.7c-1.9-1.8-3-4-4.9-6.2c-5-5.8-0.9-3.7-6-6l-2.4,3.3c-0.6,2.9,0.2,2.5-3.7,2.7
	c-3.2,2.3-11.1,7.8-16.5,8.8l5,11.5l-5.4-10.6l-13,3l-0.3,4.4c1.5,1.4,0.2-1.9,1.6,2.5l1.7,17c-1.3-5.7-4.1-13.6-3.3-19.5l-1.4-4.1
	c-10.7-0.8-9.2,1.3-23.7-2.1l-7.7,19.9c-1.5,3.3-1.3,3.3-3.2,5.2l0.7,6.8c2.8,4-1.8,30-2.4,34c-0.4,2.9-4.5,21.3-3.6,22.9
	c1,1.7,3.7,1.3,1.7,5.9l-2.9,0.3l-0.9,0.6l0.3,4.4l1.9-0.4l2.4-3.2c1,3.4-0.1,8.8-1.1,12.3c-1.6,5.9-2.9,5.2-5.7,8.5l2.1,6.8
	c-3.7-6.5-2.4-4.8-4.1-10.4l-1.4-3c-2.5,2.7-2.2,4.8-2.6,8.5c1.7,0.6,1.9-0.2,3.9,0.8c-0.5,7.6-3.8,2-4.3,11.6
	c-0.7-4.5-3.8,0.2-8.4,1l1.6-2.9c2.6-2.8,5-2.3,5.7-7c-2.8,1.5-4.1,3.5-7.3,5.4l-7.9,4.7l1.3,7.4c5.3,2.7,5.3,1.9,11.6,1.4
	c0,2.3-5.5,17.6-1.3,26.7c3.8,8.3,14.7,7.9,21.6,2.7l0.5,0.8c4,9.4,1.5,17.6,11.1,23.3c11.4,6.7,23.4-0.2,28.7-6.4
	c1.4,1.1,1.2,1,2.4,2.5c3,7.5,4.7,8.4,10.2,11.8l2.4,1.4c6.5-2.1,15.5,5.3,26.7-15.5c0.2-0.4,1-1.7,1.3-2.2c1-1.5,2.4-2.3,5.7-0.4
	c4.4,2.5,1.7,0.9,2.3,2.6c10.5,4.2,20.3,0.4,26.1-5.6c5.6-5.9,9.8-13.6,10.2-24.4l0.8-2.1c4.9,0.6,8.3,2.6,14.4,0.9
	c18.5-5.2,15-26.1,15.6-30.1c0.4-2.7-0.2-1.3,0.9-2.5c8.4,2.8,15.3-0.4,20.1-4C374.1,521.9,365.8,511.4,363.9,504z M223.1,543.3
	c2.2,3.1,2,5.4-1.8,6.6C220.2,547,219.2,544.5,223.1,543.3z M202.8,524.4c1.4,3,1.1,4-1.7,5.3C199.8,527,199.8,525.5,202.8,524.4z
	 M181.5,554.9c0.6-5.3,0.8-11.4,4.3-12.6c4.7,6.5-3.5,22-6.5,26.6C179.7,565,181,559.7,181.5,554.9z M193,567.2
	c-4.5,2.3-6.1,2.2-10.6,5.1c1.7-4.7,8.7-15.9,15.1-14C199.7,562.4,196.5,565.4,193,567.2z M203.3,545.2c-2.2,5.6-3.2,8-10,7.9
	c-6.1-7.5-6.1-15.9,0.3-24.3c1.3-1.8,3.9-4.2,6.1-4.9c-2,14-2,11.6,1.1,11c2.4-0.1,1.4,0.8,1.5-1.8l2.4-2.9
	C205.6,535.2,205.1,540.6,203.3,545.2z M212.1,588.8c-0.1,0.9-0.3,2.9-0.5,3.8c-0.2,1-0.3,1.1-0.6,2l-0.7,1.2
	c-0.5-5.5-1.5-8.3-3.2-13c-0.9-2.5-2.4-7.3-2.1-10.1c0-0.1,0-0.2,0-0.3c-0.4,1,0.3-3.1,0,0c0.1-0.2,0.2-0.6,0.3-1.2l0.6-1.3
	C212.2,568,212.4,585.2,212.1,588.8z M219.3,594.3c-1.9,2-2.2,3.1-3.9,4.8c0.8-9.5,7.6-25,12.7-20.4
	C232.9,583.1,223.6,589.7,219.3,594.3z M228.4,567c-3.3,11.7-12,8.3-15.5,4.1c-0.4-0.5-1.4-2.4-1.8-3.3c-3.3-7.5-0.8-20.2,6.9-22.8
	c1.7,2.7,1.7,8.3,1.7,11.7c2.4-1.1,5.7-7.2,6.6-9.2c1.5,1.2,1.6,0.8,2.4,3.6c0.4,1.6,0.7,4,0.8,5.6
	C229.7,560.4,229.4,563.6,228.4,567z M257.9,546.5c1.5,0.9,2.1,1.1,2.1,3.3c0,3.4-0.6,2.5-2.1,3.4
	C254.1,551.4,254.8,548.6,257.9,546.5z M252.8,550.2c3.2,2.8,2.8,8.9,5.9,11.5c1.2-4,2.4-9.9,4.3-12.9c11,5.6,8.9,29.9-4.4,31.3
	C245.2,581.6,243.9,557,252.8,550.2z M251.4,593.6c-1.4-1.9-8.7-8.8-4.7-12.3c4.9-4.4,12,13.6,12,24.4L251.4,593.6z M268.8,592.2
	l-4.9,12.3c0-0.1-0.2,0.4-0.3,0.6c-0.3-7.7-0.7-30.2,9.1-27C274.5,583.7,271,588.1,268.8,592.2z M291.5,533.3c3.8-2.1,4,3.4,1.1,6.2
	C287.6,538.8,290.2,534.1,291.5,533.3z M298.6,583.6c-2.1-1.3-17.1-6.8-11.6-12.3c6.4-6.5,15.1,10.9,16.5,16.7
	C300.9,586,302.4,585.8,298.6,583.6z M290,565.2c-6.6-2.4-7.1-12.5-5.9-17c0.5-2,0.1-1,1-1.6c-0.1-3.8,0.3-4.8,2.6-6.7
	c1.7,0.9-0.1-0.1,0.7,1.5l0.9,0.8c2.5,2.6,3,3.2,3.7,5.7c3.7-3.9,0.8-8.8,4.8-14.7c8.3,1,11.8,18,6.7,22.5
	C304,560.9,296.9,567.7,290,565.2z M310.7,569.6c-1.8,6.1-2,8.2-2.2,14.8c-2.9-3.3-3.3-10.7-3.2-16c0.1-5.2,0.6-12.6,6.5-12.5
	C313.8,560.2,312.1,565.1,310.7,569.6z M325.6,506.7c1.2,3.1,0.9,6.3-2.7,6.2C321.5,510.4,321,507.6,325.6,506.7z M319.6,533
	c-2.9-5.3-3.6-16,1.2-19.3l0.4,1.7c-0.8,1.7-1.2,1.7,0.5,0.7c4.4,1.1,0.5,0.5,5.4,3.8l1.5-13.6c1.7-0.2,2.1-0.5,3.7,0.3
	c4.2,2.1,1.6-0.4,1.9,2.6c2.4,0.2,0.5-1.2,2.3,1.6c0.7,1.1,0.8,1.8,1.2,3.1c1.7,5.3,2.2,8.3,0.3,13.6c-1.5,4.5-1.7,3.8-3.1,4.5
	C333.1,538,323.7,540.4,319.6,533z M328.7,551.9c-4.7-1.4-6.5-2.8-6.4-8.2c8.2-5.6,14.2,5.4,17.2,12.2
	C334.8,553.6,335.1,553.8,328.7,551.9z M343.5,551.8c-2.3-3.1-4-10.6-4.2-14.7c-0.3-5.1-0.2-12.6,5.5-12.2
	C346.3,530.3,343.1,543.2,343.5,551.8z M354.4,517.1c-0.4-13,15.5,2,16.6,5.3C366.6,521.8,357,519.3,354.4,517.1z"/>
<path class="st1" d="M416.5,596.4c-1.1,2.5-2.5,5.5-3.2,8.4c-17.4-0.1-14.4,0.7-32.4-2.6c-3.7-1.7-3-3.9-5.3-7.5
	c-6.8-10.5-14.8-16.4-19-22c4-7.2,14.5-17.7,16.9-24.7c2.4,2,2.6,4.6,3.7,7.9c2.3,7.2,6.6,17.8,10.2,23.7c4.1,6.8,4,7.7,12.1,10.7
	l16.3,5.8C416.1,596.2,416.3,596.3,416.5,596.4z M151.9,562.6c-1.1-5.2-0.9-9.6-1.4-14.8l-6.4,0.8c-3.2,2.2-8.3,0.7-12.3,0.2l-1.1,2
	c-0.5,0.9-1,2.3-1.3,2.7c-1.4,2,0.3,0.9-2.2,1.7c-1.1,4.9-7.4,11.7-7.9,23.5c-0.1,1.3-0.2,3.9-0.1,5.1c0.3,4.9,0.8,3.5,1.1,3.8
	c2,2,8.1,1.3,10.8,0.3c2.2-2.1,0.6,0.7,1.5-3.3l2.4-10.6c1.3,1.2,1.3-1.7,0.9,2c1-1.8,1.1-2.1,1.3-4.2l-6.2-3c8.3,0.1,16.4,4.8,24,6
	C155,572.4,152.6,566.2,151.9,562.6z"/>
<path class="st2" d="M205.9,209.7l-2.2,1.1c-10.6,0.8-27,9.1-33.2,14.3c-8.2,6.9-14.5,28.8-10.1,36.4c1-10.8-0.1-14.5,4.2-24.5
	c3.4-7.9,7.2-12.4,14.6-15.5c-1.4,9-1.5,16.6,6.6,23.2c0.4,0.3,1.5,1.2,1.5,1.2c1.3,1.1,0.6,0.2,1.5,1.4c-5.1,9.7-7,12.9-12.5,20.3
	c4.2-2.5,12.4-13.8,12.6-20.5l5.4-0.6l2.6-1.1l0.6,7.4c0.4,5.1,0,5.5-1.7,9.5c-5.1,11.4-3.6,15.9-16.3,17.6l-1.1-1.5
	c-0.1-0.3-0.2-0.4-0.4-0.6c5.2-3.7,3.8,0.9,11.5-6.5c0.6-0.6,1.2-1.1,1.7-1.7c-0.6,0.6-1.2,1.2-1.7,1.7c-2.4,2.1-5.5,4-9.6,4.5
	c-3.8-7-1.2-7.4-9-10.3c-6.2-2.3-9.3-0.1-14.7,1.1l-2-1.8c-2.6-4.5-6.6-9.8-8.7-16.1c-5.6-17.1-5.7-38.5,2.1-55c2-4.2,1.7-3,4.5-5.7
	l1.6-1.8c2.1-0.5,7-3.3,9.2-4.4c1.6-0.8,3-1.3,4.8-2l4.6-2.2c10.6-0.3,18.6-2.8,30.9-2c11,0.7,21.1,2.1,31.2,3.3l-6.2,4.6
	c-13,9.6-45.6,3.8-59.8,17.3c-14,13.4-23.6,35-17,55.1l3.6,6.8c0.1,0.1,0.3,0.3,0.4,0.5c-3-12.5-7.6-17.9-3.9-33.3
	c1.9-8.1,8.4-18.5,14-24.3c7.2-7.4,11.6-10.7,25.6-12.6c5.6-0.7,11.4-1.1,17.3-2.2c4.9-0.9,11.3-3.9,15.2-4.1
	c-2.9,3.9-5.8,6.9-8.5,13.4c-1,2.5-1.7,5.9-3.8,7.4c-1.2,0.9-1.9,0.8-3.7,1.4C207.1,209.4,206.6,209.5,205.9,209.7z M181,300.3
	c1.3,6.8,0.4,6.7-0.8,13.6c-0.3,1.8-0.3,2-1.1,3.8c-3.3,7.7-16.1,17.9-22.1,18.7c-1.6-1.4-3-4-3-4l0-2.9c-3.5-2.4-3.2-11.6-2.6-15.6
	c0.9-5.4,2.8-10.9,3.9-15.8c3.6-4.9,5.7-11.6,5.6-18.5c-1,5.5-4.3,11.9-5.6,18.5c-3.6,8.9-8.2,18.3-4.3,30.4
	c0.1,0.2,0.7,1.8,0.7,1.8c1.4,2,0.6,1,2.3,2l0.5,2.4c-8.4-5.1-15.6-16.3-10.9-30.5c4.1-12.3,11.2-14.7,14.6-27l5.3-1
	c0,0.1,0,0.1,0,0.2c-0.2,0-0.3,0-0.5,0c0.1,1,0.2,1.9,0.3,2.9c-0.6,9.7-0.9,19.3-2.3,28.7c-1.1,7.1-6,19.2-2.8,27
	c1.1-6.1,0.7-14.1,3.6-28.4c2.1-10.1,2.4-17.5,1.5-27.3c0.1-0.9,0.1-1.9,0.2-2.8c6.2,0.4,6,1.3,10.5,3.5l2.2,4.4
	C178.5,290,179.8,294.2,181,300.3z M177.7,305.5c-0.8-7.4-3.7-18.6-9-24.4c3.6,9.4,4.8,10.7,7.4,20.9L177.7,305.5z M249.4,177.8
	c-9.2-0.2-21.4,7.2-25.1,11.3c-4.3,4.8-9.9,16-11.6,25.2c1.6-1.5-0.5,0.6,1.5-1.4c2.3-2.4,7.6-10.9,17.3-13.1l5-1.6
	c-2.8,2.5-0.2,2.1-4,3.3l-1.5,2.5c7.7-1.8,14.1-4.4,22.6-4.2c1.3-1.7,0.9-1.2,4-0.9l7.7-3c-2.1,1.3-2.8,2.9-5.8,4.5
	c-2.6,1.4-5.5,2-7.5,3.5c6.9,1.1,20.2,0.2,25-2.7c1.4,1.6,2.7,4,3.5,6.7c0.4,1.5,0.5,2.6,0.7,4.1c0.1,0.9,0.2,1.2,0.4,2.2
	c0.6,2.1,0.2,1.1,0.9,2.1C286.9,193,265.5,178,249.4,177.8z M155.3,184.5c3-2.1,12.7-6.5,17-6.8c0.4-0.2,0.1-0.2,1.6-0.8
	c4-1.5,13.9-2.3,17.9-2.6c19.8-1.1,38.2,4.5,43.3,4.5c6.1,0,7.1-4,20.1-2.2c-7.7-10.1-50.4-21.7-63.4-13.3
	c20.1,0.6,30.2,3.9,44.7,12.6c-11.7-5.6-32.1-12.8-47.3-12.1c-6.5,0.3-15.9,5.9-20.6,8.6c-2.6,1.5-16.6,10.2-15,13.8
	C154,185.7,153.7,185.6,155.3,184.5z M145.5,296c5-9.3,13.8-15,11.5-23.3c-0.2-0.6-0.9-2.9-1.1-3.2c-1.2-2,0-1.4-2.4-1.6
	c-6.1,3.6-10.5,6.3-13.9,11.9c4-1.4,4.3-2.9,10.5-5.3c-10.2,7.5-14.6,4.3-14,22.4c2-3.2,0.6-4,3.9-7.1l-2.1,11.2
	C143.2,299.3,143.1,300.5,145.5,296z M199.9,213.4c0.5,6.9,0.9,12.1,4,17.5c1.5-2.5,2.3-8.8,3.4-12.2c1.7-5.3,4.2-6.5,4.9-10.8
	c-3.2,1.2-4.6,2.7-8.5,2.9c-0.2,0.1-0.4,0.3-0.5,0.3L199.9,213.4z M268.4,205.7l1,12.5c3.2-0.4,6.1-3.1,7.5-5.4
	c3-4.8,1.5-5.8,0.7-10.7C274.8,202.5,270.4,204.4,268.4,205.7z"/>
<path class="st3" d="M263.9,550c9.5,12.7,3.8,27-4.4,28.7c-12.6,2.6-14-20.7-6.7-26.8c1.5,3.6,2.6,9.9,5.9,12
	C261.8,560,260.9,553.6,263.9,550z M304.4,542.2c-1.4-4.8-3.5-5.4-5.3-8.7c-2.8,2.3-1.1-3.1-2.2,3.8c-0.6,3.5-0.5,9.7-2.6,12.2
	c-2.5-2.3-4.9-4.4-6-8.1c-2.3,1.6-0.7,0.3-2.6,4.2c-0.1,0.1-0.3,0.6-0.3,0.5c0-0.1-0.2,0.3-0.4,0.5c0.4,3.3-1.7,15.2,5.2,17.5
	c4.6,1.5,9.3-1.6,11.6-4.9c1.3-1.8,0.4-1.6,2.6-3.5C304.3,551.5,305.8,547,304.4,542.2z M334.3,509.3l-5.2-2.8
	c0.3,5.4,0.2,10.2-1,15.3c-3-1.3-4.2-2.9-6.4-5.7c-1.7,1-1.3,1-0.5-0.7c-6.2,2.2-1.7,29.2,10.7,18.7l3.1-2c1.1-4.6,3.3-4.8,2.8-11.9
	C337.4,514.1,335.6,513.1,334.3,509.3z M227.4,551.5c-0.6-1.9-0.6-1.3-0.8-1.8c-3.9,4.8-3,7.6-7.1,9.6l-1.8-12.8
	c-3.6,2-5.9,6-6.6,11.7c-0.7,5.3,1.2,11.9,5.3,14.4c6,3.6,9.3-0.9,10.8-6.1c1.1-3.9,1.3-9,0.6-13.1
	C227.6,552.5,227.7,552.6,227.4,551.5z M200.7,534.8l-3.3,2.7l0.7-11.9c-5.5,3.3-12.7,19.6-3.6,26.3c5.4-0.4,5.3-2.1,7.2-6.6
	c1.6-3.9,2.3-8.7,2.3-13.4c-0.6,0.4-0.7,0.2-1.8,1C202.1,535.6,203.1,534.8,200.7,534.8z M361.7,498.7c-4.7-4,0.8-3.3-4.8-5.3
	c-1.3-0.5,0,0.2-1.5-0.5c-1.9-0.9-3.7-2.3-4.5-4.2c-0.3,0.1-3.6-1.8-2.4,7.7c0.3,2.7,1.8,5.6,3.2,7.1c1.7,1.9,4,2.9,7.4,1.9
	C363.3,504.1,361.9,502.4,361.7,498.7z M189.4,507.4c-0.9,1.8-1,2-1.9,3.2c-1.1-2-0.8-0.6,0-2.8l-0.3-4.4l0.9-0.6l0.8-2.8
	c-2.1,1.1-2.6,6.9-3.5,11c-1.1,5-2.6,7.5-0.3,12.6c2.2-0.8,1.4,0.5,3.1-2.9c1.9-3.9,2.7-10.1,2.9-14.3
	C191,506.5,189.8,506.8,189.4,507.4z M251.6,282.5c0.5-2.8-0.7-3.9-2.1-5.6l-4.3-5.3c-0.2,2.3-0.4,4.2,0.2,6.5
	c0.1,0.3,1,2.3,1.1,2.4c0.4,0.5,0.5,0.7,0.6,0.9c0.2,0,0.6,0,1.3,0.2C249.2,282.1,248.6,282.8,251.6,282.5z M247.1,281.3
	C246.6,281.3,247.2,281.7,247.1,281.3L247.1,281.3z M259.2,274.2l1.1-2.6c-0.7-0.7-0.5-0.7-1.9-1.3c-0.7-0.3-1.4-0.5-2.2-0.7
	c-1.3-0.3-3.5-0.2-5.2-0.3c1.1,1,2.4,1.9,3.8,3.2C257,274.3,255.5,274.3,259.2,274.2z"/>
<path class="st4" d="M409.4,267.4c-5-7-7.3-27.9-6.3-38.4l11.2-2.2c-0.3,2.3-0.9,12.7-0.6,15.4c0.9,8.6,0.8,8.1-0.7,16.1
	c0-4.6,1.2-16.7-0.9-21C412.1,244.5,412.4,262.8,409.4,267.4z M491.1,222.2c-4.8,0.3-9.9,4.8-13.1,8l-7,8.3c-2.1,3-1.6,1.1-1.6,4.5
	l-0.9,3.5l7.7-6.3c10.7-9.1,16.3-9.5,29-12.4C503.4,226,494.4,223.1,491.1,222.2z M413.4,321.8c-3.7,0.7-3.6,1.4-6.5,2.5
	c1.3,2,0.1,0.8,2.2,2.2c0.5,0.3,1.3,0.6,2,1c-2.2,3.2-1.4,0.7-3.7,3.3c2.7,2.2,2.5,1.2,3.8,4.3l5.9-0.6c1.6,2.3,2.8,3.7,2.9,7.8
	l-5.3,1.5l0.7,2.7l0.2,2.8c3.4,0.2,6.8-1.1,9.3-3.1C425.8,335.1,420.8,328.2,413.4,321.8z M348.2,313.7c-1.7-3.2-2.9-4.3-6.3-6.1
	c-4.4-0.1-4,1.2-7.9,1.4l-0.5,1.7c0,0.1,0.3,0.4,0.3,0.6c6.1,0.9,1.7-3.5,8,1.3c-0.7,1.6,0,0.2-1.1,1.5l-1.7,1.9
	c4.1,7.4,2.6,1.8,6.3,4.1c1.5,0.9,2.1,2.3,1.2,4c-1,2.1-2.8,1.1-3.9,2.9l2.3,3.7c4.1-2.4,4.2-2,5.8-7l-0.8-4.9
	C349.7,316.7,349.2,315.5,348.2,313.7z M508.3,228.4l-3.8,0.1l4.8,11.3L508.3,228.4z"/>
<path class="st5" d="M429.4,166.6c-1.2,0.7-1.9,1.2-3.7,2.2l-2.2-3.6l0.6-0.8l0.5-2.8l-3.1-0.4c-0.8-2.2-0.1-1.8-2.4-3.1
	c-1.2-0.7-0.8-0.2-1.8-0.7c-1.9-0.8-0.5,0.1-1.8-0.9l3.3-4.7c1,0,1.1-0.2,1-0.2c0.1,0,0.2,0.2,0.7,0.4c0.1,0.1,0.5,0.3,0.6,0.3
	c0.1,0.1,0.3,0.3,0.4,0.5c0.1,0.2,0.3,0.2,0.4,0.5l4.2,3.7c0.5,0.4,0.3-0.2,1.2,1.4c0.1,0.1,1,2.2,1.1,2.4
	C429,162.8,429.1,164.6,429.4,166.6z M384.7,168.7c2.5,0.9,1.4-0.4,2.4,2.4c-1.7,0.7-0.6,0.7-2.7,0l3.1,2.4l-1.2,5.4
	c2.4-0.2,2.5-0.5,4.1-0.8c0.4-3.6,0.5-6.3-1-9.8c-1.2-2.9-0.8-1.4-2.6-3.4c-2.2-2.4,0.1-0.7-2.3-2.5c-4.8-0.6-6.8,0.7-6.9,5.2
	c1.6-1.1,1.3-1.4,4-1.8C384.5,167.5,383.3,166.2,384.7,168.7z M500.7,577.4c-1.7-5.6-2.7-10.1-3.8-15.7c-0.8-4-1.9-12.8-3.4-16.4
	l-26.2-0.4c0.8,3.4,11.1,21.9,13.6,26.9c5,10,8.4,18.3,10.6,29.1l3.2,1.6c9-1.1,11.5-0.6,20.2,1
	C510.7,592.6,507.3,599.3,500.7,577.4z M447.6,222c1.4-2.7,3.6-4.8,6.2-6.1c0.5-1.2-0.8-0.2,1.3-1.9c0.9-0.8,1.6-0.9,2.8-1.4
	c0.6-0.8-0.2-0.5,1.1-1.5c1.2-0.9,1.1-0.6,2-0.9c1.4-2.3-1.2-0.2,2.4-2.4c0.5-0.3,1.4-0.7,1.9-0.9c-1.9,3.4-0.7,2.2-4.3,3.4
	c-0.4,0.7,0.4,0.2-0.9,1.2c-0.8,0.6-1.3,0.7-2.2,1.1c-0.6,1.3,0.7,0.2-1.5,2c-0.5,0.4-1.9,1-2.6,1.4L447.6,222l-1.7,9.3
	c8.5-0.9,16.5-7.8,20-12.1c2.3-5.9,2.7-2.1,5.1-8.3c-2.9-1.5-4.5-6.7-5.2-10.6c-3.3,1.1-6.5,4.1-9,6c-11.2,8.3-15.1,11.5-16.7,25.5
	l4.9-0.2L447.6,222z M445.4,257.3l-7.9-0.4l-4.4-1.1l0.8-14.5c1-1.5,1.3-2.2,0.9-4.7c-0.8-4.8-0.7-2.6-2.3-3.3l-1.9-4.1
	c5.5,4.5,8.9,4.5,17.5,3.9l0.4,0.8l-0.8,2.5L445.4,257.3z M436.8,235.5L435,255c0.1-0.2,0.3-0.4,0.3-0.6c0.1-0.1,0.2-0.4,0.3-0.6
	l0.6-3.6C436.8,245.5,437.9,240.3,436.8,235.5z M442.3,236l-1.6,20.3c1.2-1.4,1-0.5,1.6-3C442.8,250.9,443.9,237.2,442.3,236z
	 M469.9,501.5c0.4,0.9,0.3,1.1,0.3,1.1c0.1,0,0.3,0.1,1,0.4l-1.6,1.8c-0.6,3.9-0.6,9.2,3.5,10.2c1.2-2.8,0.4-2.5,0.4-5.6
	c3.9-0.4,2.5,1,5.7-1.2c-0.9-2.9-3.7-4.5-7.4-4.6c4.4-1,5.7-0.7,7.2-4.4l-5.1-0.2c0.2-3.8,1-2.8-0.9-5.2
	C470.9,494.8,469.5,495.2,469.9,501.5z M469.2,505.2c-0.8-1.6,1.7-1.8-3.6-0.7c0.8-2.2-1.2-1.7,1.2-1.8c1-3.7,1.5-7.5-2.1-9.9
	c-0.1,0.2-0.3,0.5-0.3,0.7l-0.6,1.4c-0.1,0.2-0.1,0.5-0.2,0.7c0,0.1-0.2,1.9-0.3,2.4l-5.3,0.1c1.2,3.5,3.3,3.9,7.6,5
	c-0.2,0.1-0.5,0.2-0.6,0.3c-0.1,0.1-0.4,0.2-0.6,0.3c-5.6,2-5.5-0.5-7.4,4.4l6.2,0.2c-0.3,2.7-1.3,4.5-0.2,6.3
	c4.5-2.2,2.6-4.8,4.4-7.8C468.4,504.9,466.9,505.9,469.2,505.2z M424,497.3c-1.2-3-1-1.7-4.9-2.7c0.5-5.8,1.2-4-0.5-5.7
	c-2.4,2.8-2.6,5.5-3.6,7c-1.2,1.8,0.2,0.8-1.8,1.3c0.6,2.5-0.2,0.4,1.2,1.5l1,0.3c-1.6,3.5-1.3,9.5,1.9,11.5
	c1.7-2.1,1.1-2.4,1.1-5.3c3.3,0.3,2.3,1.4,4.6-0.2c-1.2-3-2.9-3.7-5.4-6.3C421.7,499.1,421.4,499.6,424,497.3z M452.1,499
	c-2.6-2-1.2-1.3-5-1.3l-1.1-5c-0.6,0.6-0.6,0.4-1.3,1.5l-1.5,3.7c-0.5,1.8-0.9,3.9-1.2,5.8c-0.4,2.8-0.6,2.8,0.2,5.8
	c0.2,0.6,0.5,1.7,0.9,2.4c1.1,1.7,0.1,0.7,2.4,1.6l0.5-5.2l4.9-0.8c-1-3.7-2.8-2.9-6.6-5C448.9,502.2,450.1,502.5,452.1,499z
	 M439.9,496.5c-0.7-4.5-1.9-4.1-2.4-4.5l-1.4,4.8l-5.7,0c1.1,1.9-1,2.1,3.6,4c2.6,1.1,2.8,0.9,5.5,0.9c-3.6,1.1-7.6,1.1-9.5,5.3
	l6-0.4l-0.3,5.6c0-0.1,0.1,0.4,0.2,0.6c2.3-1.8,2-1.8,3.1-5.8l1.5-3.4c0.1-0.1,0.4-0.4,0.4-0.5l1-0.9
	C439.1,500.6,440.6,501,439.9,496.5z M411.3,486.4c-2.1,2.7-0.4,1.9-1.7,4.7l-4.9,0.3c0,0.2-0.1,1.2-0.2,1.5l6.4,4.3
	c0.2,0.1,0.4,0.3,0.6,0.4c-4.2-0.9-7-1.1-8.5,2.2l4.9,1.1c-0.4,3.5-1.4,2.9,0,5.8c4.7-1.1,3.1-2.8,4.5-7.7c0.2-0.8,0.3-1.1,0.2-1.2
	c-0.2,0.2,0-0.1,0,0c0.1-0.1,0.3-0.3,0.6-0.8C413.3,493,413.7,489,411.3,486.4z M393.9,487.5l0.9-6c-3,1.5-4.2,3.5-4.7,7.2l-0.9,3.3
	c-0.3,3.8-0.9,7.1,0.9,10.4c2.5-0.8,1,0.1,2.4-4.4c2.3-1,2.6,0.1,4.6-0.8c-1.3-3.3-2.1-2.8-4.4-5.2c1-0.1,2.8-0.3,3.6-0.5
	c3.4-1.2,1.5-0.6,2.5-1.9C397.8,488,398.3,487.9,393.9,487.5z M434.3,229.3c-0.4-4.6-0.6-6.7-2.3-10.2c1.6,2.8,2.3,1.4,2.8,6.3
	c0.5,4.2-0.4,5.7,4.2,5.8l-0.4-6.6c-2-3-1.1-9.4-8-10.1l-1.2,7.5l0.2,0.7C430.6,226.1,431.2,228,434.3,229.3z M386.7,479.7
	c-1.8,1.4-1.2,1.3-2.3,4.1c-1.2,0.4-2.7-0.2-4.7,0.8c1,3.6,2.3,2.5,5.8,5.3c-4.3,0-6-0.1-7,3.4l4.9,0.4c-0.9,2.1-1.8,3.2-1,5.4
	c2.4,0.7,3.4-1.7,4.7-4.4l-0.2-3.4c2.5,1.1,0.6,0.6,1.4-0.7C386.6,487,389.6,484.1,386.7,479.7z M372,481.4
	c-0.3-0.1-0.4-0.2-0.6-0.3c0.2,0.1,0.4,0.3-0.7-0.2l0-5c-5.6,2.2-9.1,13.8-5.3,19.1c1.1-1,1,0.3,2-4.2c3.1,0.3,2.2,1.2,4.7,0
	c-0.5-1.8-0.7-2.2-1.9-3.3c-0.6-0.5-1.1-0.7-1.5-1.1l-1.9-1.7c3.3,0.4,4.7,0.9,7-1.8C372.9,481.8,373.6,482.3,372,481.4z
	 M371.4,481.1C371.3,481,371.1,481,371.4,481.1L371.4,481.1z M363,474.5l-2.5,4.3l-4.5-0.8c0.4,2.8-1.4,2.4,5.3,5.1
	c-1.3,0.5-2.1-0.1-3.6,1.5l-0.8,1.5c2.7,1.4,0.8,1.1,2.6,3.9C363.5,487.3,365.4,478.6,363,474.5z M501.7,515.7
	c1.3-4.2-0.6-5.7,2.4-6.4l-0.7-4.4c-4.3-0.6-3-1.3-6.2,0.5C498,509.4,498.2,514.5,501.7,515.7z M491.8,514.7
	c4.2-1.2,3.3-5.1,3.4-9.4l-5.6-0.2c-2.8,0.8-2.4-0.1-3.8,3.6l6-0.3C491.2,511.5,490.6,512.6,491.8,514.7z M491.5,503.3l3.7,0.1
	l-0.1-4.6l-2.6-4.5c-2.7,2.6,0.2,3.4-2.8,4.4c-3.4,1.1-1.9-0.2-3.8,1.1C487.3,502.5,487.8,502.3,491.5,503.3z M502.8,503.2
	c-0.3-3.9-1.1-4.4-0.5-8.5c-3.7,0.5-3.2,0.4-3.7,5.2l0.4,2.9L502.8,503.2z M434.3,264.5C434.4,264.3,434.3,264.4,434.3,264.5
	L434.3,264.5z M433.1,268.5l-2.4,0.7l-0.5,3l5.1,0.5l-0.2-8.2c-0.8,0.5-1,0.3-0.9,0.1c-0.1,0.2-0.2,0.5-0.4,1.1
	C433.9,265.6,433.2,268.2,433.1,268.5z M432,283c1.8-0.8,1.9,0.7,2.6-2.9c0.2-1.3,0-2.9-0.1-4.2l-3.8-0.4l-1.1,2.3l2.4,1.8L432,283z
	 M442.8,276.4l-4.5-0.1c-0.5,2.7-1,4.8,1,7.6c0.8-1,1.2,0,1-4.4l2.9-0.8L442.8,276.4z M441.1,269.8l0.2-4.5c-2,2.3-2.6,4.2-2.6,7.2
	l4.1,0.7l1.9-3.3L441.1,269.8z"/>
<path class="st6" d="M373.7,545.4c-3.9,4.8-7,9.5-10.8,14.6c-3.4,4.6-7.3,10.2-10.9,14.6l-38.7,36.8c-10.2,7.8-21.2,13.2-33.5,17.3
	c-32.8,10.9-80.4-4.6-103.7-28.4c-1.2-1.2-1.7-1.4-3.1-2.8c-5.5-5.5-19.5-25.5-19.4-37.9c1.4-0.7,2-0.9,4.3-1.2
	c-1-1.4-0.1-0.4-1.2-1.5c0,0-1.5-1-1.6-1c3.8-0.6,1.6,0.7,2.7-1.8l-2.8-2.4c5.2-0.6,1.2,0.6,3.2-1.5l-0.9-1.8
	c0.1-0.3,0.3-0.3,0.5-0.5l-3.5,0.3l-1.4,3.1l-0.2-5c2.4,1.5,3.9,1.5,5.5-1.5c-0.8-0.6-0.7-0.8-0.7-0.8c-0.1,0-0.4-0.1-1.4-0.4
	c-0.4-0.1-1,0-2.1-0.3l7.1-2.8c0.1,1.8,0,3.3,0.4,4.8c1,3.7,1.5,2.4,2,2.7c0.1,1.2-1.9,2.7,4.6,3c2.6,0.2,3.7-0.3,6.1-0.5
	c-2.3,8.4-6.1,19.3-1,27.9c6.7,11.4,20.4,2.1,22.7,1.2c4,9.4,1.5,17.6,11.1,23.3c11.4,6.7,23.4-0.2,28.7-6.4c1.4,1.1,1.2,1,2.4,2.5
	c-2.7,4.1,8.2,13.5,12.6,13.2c6.5-2.1,15.5,5.3,26.7-15.5c0.2-0.4,1-1.7,1.3-2.2c1-1.5,2.4-2.3,5.7-0.4c4.4,2.5,1.7,0.9,2.3,2.6
	c0.6,1.5-2.4,0.8,2.9,2.6c22.8,7.6,40-27.7,33.4-32.6l0.8-2.1c4.9,0.6,8.3,2.6,14.4,0.9c18.5-5.2,15-26.1,15.6-30.1
	c0.4-2.7-0.2-1.3,0.9-2.5c8.3,7.7,18.7-2.7,20.8-3.9C379.9,535,379.7,537.9,373.7,545.4z M178.2,393c-2.7,11.4-0.2,63.6,16.2,36.6
	c4.5-7.4,8.5-17,10.2-26.6c2.4,3.6,0.1,3.9,12.9,4.9c26.9,2,36-10,43.1-11.1c3.9-0.2,3.1,0.2,3.7-2.7c0.8-1.8,1.2-1.8,3.3-3
	c-0.8-2.8-1.2-2.8-1.9-5.1l-0.2-3.4c-1-3.7-0.6-1.1,0-2.3l-8.5-3.5c-12.2,12.2-32.3,14.3-49.2,14.1c-0.1,0.2-0.2,0.5-0.2,0.7
	c-2.4,8.5-3.4,8.7-4.2,11.5c-1.3-1.4-4.2,2.7-0.4-4.4c0.7-1.3,1.3-1.1,1.8-3.4c1.2-4.5-1.3-5.7-3.1-8.2
	C193.4,386.5,181.6,378.8,178.2,393z M181.4,438l-4-10.7c-5.6,5.3-13,26.1-15.5,35.8c-4.9,19.5-4.9,25.2,0.6,43.8
	c5.8-0.3,14.3-1.2,18.8-4.5c-2.5-10.6-6.3-19.2-7.2-31.7c-0.7-10.4,0.5-25,6.6-31.7L181.4,438z M174,426.2l1.7-0.1
	c0.9-1.4,0.3-1.1,0.8,0.6c0.5-1.1,0.5-0.6,0.5-2.9c0,0-0.6-3.4-0.7-3.5c-1-2.5-1.9-2.3-4.1-3.9c-1.2,0.9-0.2-0.2-0.8,2
	c1.7,0.1,1.6-0.9-5.3,3.3c-12.8,7.9-9.5,5.5-19.7,14.1c-4,3.3-7.8,7.6-9.1,13.1c-1.3,5.2-1.1,15.2,1.3,20c1.9-3.3,2.9-9.2,5.3-13.5
	C149.7,445.3,162.8,430.2,174,426.2z M176.6,392.3c1.9-8,6.8-11.5,16.1-9.1c-0.8-2.1-1.7-2.6-3-3.6c-10.7-4-20.9-10.1-22.9,6.6
	c-1.1,9.6,1.5,22.5,8.5,30.1C176.2,407.5,174.2,402.3,176.6,392.3z M141,466c-3.9,8.8,3.8,17.4,8.9,17.4c-3.8-6.7-6.4-10.4-7-19.9
	C141.5,464.7,142.1,463.5,141,466z M157.3,553.7l-4.5-1.3l-0.1,3.5c3-0.9,0,0.4,2.1-0.6C158.8,553.5,155.6,555.1,157.3,553.7z"/>
<path class="st7" d="M248.8,224.3l2.3,0.1c-0.5,3.4-0.3,2.9,1.4,4.6l-2.6,0.2c0.7,2.1,0.3,1.6,1.3,2.9c-0.2,0.2-2.3-0.2-0.9,4.9
	c0,0,4.6,9.8-1.4,5.9c-1.5-1-0.9-0.9-1.4-1.4C248.4,240,245,231.4,248.8,224.3z"/>
<path class="st8" d="M223.1,305.7l2.6,1.9c-11.6,0.5-20.2,6.9-22.5,16.5c-2.1,8.9-1.3,24.9,4.1,31.6c-4.6-1.5-8.2-7.6-10.5-12.4
	c-2.8-5.7-3.5-13.3-1.4-19.5C198.9,313.3,209.8,304.6,223.1,305.7z M421.4,596l-4.2,0.4l-2.8,9.2c-9.2,2.1-26.3,0.6-33.5-3.3
	c-1.3,1.4-0.7-0.4-0.7,2.4c0,0.2,0.5,1.6,0.6,1.8c10.6,0.9,27.7,5.3,38.5,1.5c0.4-6.1,1.7-6.7,2.3-9c0.1-0.3,0.2-1,0.3-1.2
	C421.9,595.6,422,597.2,421.4,596z M130.7,590l-5,0.3c-2.8,0.1-4.4,0.1-6.5-1.4c-5.1-4.4,1.9-30.1,8-33.7c1.1-3.2,0.9-2.8,3.4-4.3
	l1.1-2l-2.9-0.6c-1.6,3-3.6,5-5.5,8.7c-1.7,3.2-3.2,6.6-4.2,10.1c-1.1,3.8-5.5,23-2,25.5c3.7,1,13.1,1.6,15.3-2
	C131.3,589.9,132.7,590.2,130.7,590z M201.6,305.9c-3.1,1.3-9.3,5-10.8,6.6c-1.3,1.3-6.3,8.9-6.7,11.3c-1.3,1.1-2.5,2.6-3.8,0.5
	c-3.4-0.1-1.2-0.4-2,1.3l1.7,4.8l3.3,0.6l7.2-14.5c2-2.7,2.1-4.1,5-6L201.6,305.9z M440,258.1c-3-0.2-2.5,0.3-3.7-1.1l-3.5,0.7
	l-0.2,3.9l12.7,1.4l0.2-5C443.2,258.1,442.4,258.2,440,258.1z M402.3,133.7c2.1,1.6,2.2,0.8,5.1-0.6c2.6-1.2,3.6-1.5,6.3-2.1
	c4-0.9,10.6-0.6,13.6-2.2C420.6,129,406.1,128.4,402.3,133.7z M382,142.4l2.9-0.6l0.8-0.4l-1.8-3c-3.1,0.3-8.5,4.3-11.7,5.6
	c-0.4,0.9-1.1,1.8-1.2,2.8c-0.6,3.2-0.8,1.1,0.5,2.3c0.7-3.8,1.1-3.7,4-5.4c1.3-0.7,2.1-1.4,3.4-1.7
	C384,140.7,380.9,141.4,382,142.4z M263.1,208l-13.5-1.5l-2.6,1.7c-0.2,0.1-0.5,0.3-0.7,0.4c3.4-0.3,5.6-0.9,9-0.4
	C267.7,209.9,261.2,210.5,263.1,208z M254.3,201.5c2.8-0.1,3.4,0.8,3.1-2.5c-3.1-0.3-2.7-0.9-4,0.9l0.1,1.1L254.3,201.5z M197,245.3
	l0.6,7.4c0-1.5-0.1-3.3,0-4.7c0.3-3-0.1-1.8,0.9-3.1c-0.8-1.4,1.7-1.1-1.9-1.1c-1.2,1.1,0.3,0-1.5,1c-1.8,1.1-0.6-0.1-1.9,1.1
	l1.2,0.5L197,245.3z"/>
<path class="st9" d="M458,132.8c-0.4-0.9,1.2-1.2-4.7-3.8c-7.6-3.3-15.9-2.6-24.1-4c-11.6-1.9-14.1-8.7-18-18.7
	c-0.1-0.7-0.2-1.8-0.4-2.5c-0.9-3-0.7-1.7-1.2-2.3l-1.6,4l-1.8,11.4l-1.4-3c-0.9-3.9-0.4-9.1-0.6-12.1l-2.5,6.6
	c-2.9,5.2-5.6,10.3-9.2,15c-3.5,4.7-7.3,9.2-12.5,12c0.9-3,1.8-2.3,3.1-6.2c0.8-2.3,1.3-4.9,2-7.4c1.6-6.1,3.6-8.9,5.7-13.6
	c-2.8,1.8-4.4,4.2-5.8,7.7c-0.6,1.6-0.9,3.4-1.6,5.1c-0.9,2.4-1.6,2.8-2.6,5.2c-4.9,3.2-12.4,17.6-14.5,19.5c-0.5-3.6-0.6-8-0.5-12
	l0.9-8.8c0-0.2,0-0.3,0-0.4c0.2,1.5,0-1.4,0,0c0-0.2-0.1-0.5-0.1-0.8l-0.2-1.2c-3.1,11.4-3.4,17.2-0.5,29.1c-3.4-1.4-3.4-2-5.5-5.1
	c-7.7-11.3-4.3-16.5-4.6-25.9c-0.5,1.6-2.1,4-3,6.2c-1,2.6-1.5,5.9-2.5,7.9c-4.6-11.2,4.3-31,19.4-39.3c14.4-7.9,33.5-9.5,50.2-4
	c9.4,3.4,13.3,6.9,17.2,8.3l-4.2,0.6c8.5,4.4,10,3.9,17.4,12.2C453,115.6,460.9,127.2,458,132.8z M243.3,354.8c0,0,1.1-1.3,1.2-1.4
	c0.1-0.3,0.2-0.5,0.3-0.6c-0.1-0.1-0.3-0.3-0.6-0.5c-4.2,1-7.7,1.8-11.7,0.8c9.2-3.6,20.3,1.3,14.4-20.1c2.9,3.1,2.6,6.9,4.2,9.9
	c9.9-15.8-5.7-38.5-30.9-32.2c-25.6,6.4-16.6,38.3-8.9,48.5C220.1,370.8,236.6,362.8,243.3,354.8z M244.7,352.9
	C245.6,353.5,245.1,352.3,244.7,352.9L244.7,352.9z M494.2,116c-1.8-6.4-2.6-9.7-5.7-13.6c-1.4-0.5-0.3,0.4-1.9-0.7
	c-1.7-1.2-0.9-0.5-1.7-1.9c-4.7-1.2-7.7-4.9-20.9-6.8c-4.3-0.6-25.2-0.6-25.8-0.8c9.8-3.4,38-0.9,45.7,6.2c1.1,1,0.5,0.6,1,1.4
	l3.6,2.7c0.7-2.2-2-6.1-3.2-8c-2.6-4.2-2.5-3.6-5.9-6.8c-7-6.5-6.1-5.7-15.8-10.5c-9.4-4.6-11.7-3.9-22.1-1.4
	c-3.7,0.9-6.3,1.7-9.7,3c-2,0.8-3,1.3-4.7,2.2c-2.1,1.1-2.3,2.7-2.8,0.4l-2.1,0.4c3-4,7-7.3,13.1-8.4l7-3.2
	c-33.6-0.2-26.7,0.1-51.9,12c-2.9,1.4-0.5,0.7-3.1,1c1.7,1.2-1.6,1.5,6.9-0.7c15.2-3.9,28.7,0.3,40.5,9.1c4.2,3.2,6.7,4.6,9.8,10.1
	c1.7,0.2,1.7-0.2,3.9,1.6c9.1-0.2,44.7,23,49.1,27.3C497.4,126.9,495.3,120.1,494.2,116z M490.1,127.8c-17.4-13-35.4-19.6-42-24.3
	c-4.7-0.6-1.5-0.9-2.5,1.5c7.4,5.1,14.2,15.4,14.3,29.7c-3.9-1.3-1.3-0.2-2-1.8c-4.2-1.4-8-2.8-12.8-4.3l-3.3-0.1l2.5,3.6
	c8.8,5.1,3.4,2.8,15.2,8.5c9.9,4.7,24.7,7.3,30.7,16.7c3.4,5.3,4.8,14.8,6.5,17C506.6,152.3,507.9,141,490.1,127.8z M487.1,156.2
	c-2.3-2.1-0.4-1-3.3-2.4c-1.1,13.8-13.9,25.7-20.9,19.7l-0.5,1.4c-0.5,5.9,2.7,17.2,4.4,23.5c0.8,3,1,4.8,3.2,6.5
	c6.3-11.6,0.3-10.9,0.6-17.5c-1.3-0.8-0.9,0.3-1.6-2.2c-0.7-2.5-0.3-6.6,1.3-9.2l0.3,11.4c0,0,0.3,0.1,0.9,1.3l1.7,6.4
	c0.3,1.7,0.4,1,0.4,2.9c0,5-5.9,9-2.7,9.6l3.6-0.3c1.5-0.4,3.1-1,4.6-1.5c2.4-0.8,5.6-2.1,7.6-3.4c8.8-5.8,8.1-25.6,5.9-34.9
	C491.6,162.7,490.6,159.4,487.1,156.2z M355.8,230.9c0.1-0.1,0.2-0.2,0.3-0.2C355.9,230.7,355.8,230.8,355.8,230.9z M381,232
	c-2.2,3.9-2.2,5.6-1.9,10.7l-1.9-5l-1.5,3.6c-1.9,0.8-2,2.3-3.1,3.8c-3.1,4.1-6.9,7.5-12.6,8.5l3.7-3c5.5-3.4,6-5.9,8.1-7.5
	c-4.1,2.9-8.7,7.6-15.8,9.1c-6.9,1.5-15.7-2-19.9-6.5c10.8-1,14.6-8.1,16.4-9.4c-0.1,0-0.2-0.1-0.2-0.1l-1-0.7
	c1.8-1.9,3.3-3.4,4.5-4.5c-0.1,0.2,0.3,0.5-0.4,1.8c2.8-1.4,4.8-2.6,7.3-3.9c-1.5,0.1-2.7,0.2-3.8,0.7c-1.7,0.7-2.5,1-2.9,1.2
	c6.5-6.1,6.2-2.3,18.1-4.8c2,1.2,1.9,0.9,4.7,1.1c0.2,3.1-0.3,0.5,0.7,2.9L381,232z M355.9,244.8c-2.7,1.4-2.4,1.5-4.5,2.8l-3.7,2.3
	C352.7,248.7,354.3,248,355.9,244.8z M373.2,231c-1.2-0.5,1.8-1.6-2.1-0.2c-1.8,0.7-0.8,0.7-1.4,1.4c-4.8,0.9-1.8,0.5-2.5,1.6
	c-4.4,1.5-7.9,6.4-10.6,10.5c1.7-0.8,1.8-0.4,3.5-2.5c4.3-5.3,6.4-6.2,7.2-8c1.4-0.4,0.5,0,1.8-0.8c0.1-0.1,0.3-0.2,0.4-0.4
	c0.1-0.2,0.2-0.3,0.3-0.5C372.7,231.6,370.7,232.3,373.2,231z M219.6,302.9c-1.5-10.9-22.2-12.5-33.9-14.3
	c4.2-1.3,12.3,0.9,17.3,1.8c6.5,1.2,10.5,4.3,14.5,6.3c-1.5-6.2-5.1-8.6-10.7-11c-7.3-3-14.1-4.3-21.9-4c-0.6,3.8-2.6,10-2.7,13.1
	C181.5,309.4,206.7,300.1,219.6,302.9z M414.1,220.2c-0.8,0.7-1.3,1.4-2.7,1.9c-1.3,0.4-1.2,0.6-3.2-0.4c6.2-1.4,4-1.5,5-2.5
	c-5.6-1-7.1-3.5-11.7-4.8c-0.8,2.2-1.9,3.9-2.7,5.6l1.7-5.8c-7.8,1.2-7.7,2.5-10.6,7.3c-2.5,2.4-3.6,3-2.9,6.8
	c2.6,0.8,0.8,0.2,3,0.5l3.5,1c6.3-1.8,4.2,1.9,10.7-3.5c0.1-0.1,0.3-0.2,0.5-0.4c-0.4-0.1-0.7-0.2-1-0.3c-4.3-0.7-4.1-1.2-10.2-0.2
	c4.9-3.3,6.8-1,10.2,0.2c0.4,0.1,0.8,0.1,1.2,0.2c-0.1,0-0.1,0.1-0.2,0.1c1.2,0.3,2.7,0.5,4.5,0.2c6-0.9,11.8-3.2,17.4-4.1l1.5-1
	l-0.3-4.6C421,219.3,423.1,219.3,414.1,220.2z M179,321.5c1.1,2.4-0.8,0.7,2.1,1.9c2,0.3,1.1,0.3,2.6-0.4
	c0.7-10.2,14.6-16.7,16.5-19.1l-16.8-1.3C183.8,308.9,183.2,317.3,179,321.5z M255.3,337.5c-1.6,2.2-2.7,5.7-3.8,7.6
	c-1.8,3.1-3,3.6-4.6,6.2c-0.5,1.1-0.4,1.5-1,2.6c-0.2,0.3-0.7,1.2-0.8,0.9c-0.1-0.1-0.3,0.3-0.5,0.4c-1.7,1.8-2,2.4-3.6,4
	c-2.3,2.4-1.9,2.6-4.4,2.9c1.1,4.2,4.6,1.6,7-0.3c2.2-1.6,4.5-3.6,5.8-5.2c3-3.5,6.8-8.7,8.4-14.4l0.4-2.2
	C257.1,337.7,257.8,338.6,255.3,337.5z M465.5,148.1l0.5-2.3l-11.6-5.2c-1.5,1.2-0.7-0.5,0,2.8c2.8,6.6,3.4,12.5,3.1,20.3
	c2.7-1.9,3.5-3.7,5.3-7.2C464.1,153.8,465.1,151.4,465.5,148.1z M443.2,74.3c4.2-0.9,4.8,0,7.5-2.3c-9.2-1.4-9.3,1.8-15.4,1.6l-11,8
	C428.2,80.2,429.9,77,443.2,74.3z M377.1,248.8c1.2-2.1,1.1-3.1,1.4-5.5c-1.8,2.2-3,5.8-3.8,8.6L377.1,248.8z"/>
<path class="st10" d="M468.6,146.6l-1.4-0.5l-1,4.3c-0.5,7-5.2,14.3-10,15.9c0-3.9,0.1-8-0.4-11.8c-0.4-3.8-1.7-7.2-2-10.6
	c-2-2-1.2-1.3-2.1-4c-2.9-3.6-6.3-3.3-8.6-7.4c-1.1-0.8-0.4,0.1-1.7-1.7c-0.9-1.3-0.9-1.7-1.7-2.6c-7.5-0.6-15.1-0.8-20.4-4.9
	c-4.8-3.7-7.6-8.8-9-17.1l-1.8-0.1l-0.9,16.6c-5.6-2.5-3.2-10.9-6-14.2c-1.3,7.3-6.9,16.3-11.6,21.1c-2.3,2.3-6.3,7.3-12,8.2
	l1.8-2.2c-0.6-1.5-0.3-0.8,0.6-3.6c0.7-1.9,0.8-3.3,1.4-5l-1.2-0.7c-1.3,6-13.2,16.4-11.9,21.1c0.2-0.1,0.3-0.6,0.4-0.5l1.2-1.4
	c1.8-1.8-0.7-0.6,1.8-1.4c0.5-3-1.2-0.5,1.9-2.6c0.5-0.3,2.2-1.1,2.8-1.4c2.2-1,4.6-1.6,6.4-2.6l0.6,1l1.8,3l4.1,11.2
	c-3.1-2.3-4.2-6.7-4.9-10.9l-2.9,0.6c-7.3,1.4-7.9,4.2-10.6,6.7c-2,6.5-0.9,5.4,1.8,11.8c3.3-0.5,2.2-1,5.3-1.7l1.2-2.6
	c5.2-0.5,4.6-0.3,7.1,2.5l-7.1-1.8l2.4,2.1c2.1,0.3,3.6,0.8,5.1,1.8c0.7,0.5,1.3,0.9,1.8,1.6c1.1,1.4,0.6,0.6,1,2.2
	c0.8,0.3,1.1,0.3,1.3,0.2c-0.2-0.5,0.3-0.1,0,0c0.1,0.2,0.2,0.4,0.5,0.9c0.6,1,0.4,1.4,0.5,2.5c0,3.3,0,2,1.2,4.8
	c0.6,1.4,0.9,2.5,1.2,4.8c4.1,0.9-8.8,1.1-9.4,1c-5.2-0.9-4-3.7-7.6-6.3c-0.4,17.1-0.4,22.3,10.4,30.8c3.5,2.8,22.1,14.1,27.8,14.6
	c9.3,0.8,21.7-11.3,26.6-15.1c8.1-6.2,14.4-16.9,15.1-27.3c0.7-3.2,1.1-1.7,1.2-5.4l1.5,0.8c7.3,2.5,10.8,2.2,15.6-3.1
	c2.9-3.2,6.2-9.3,7.1-14.7C479.4,149.7,473.6,148.2,468.6,146.6z M439.3,132.9c-7.8-1.4-13.2-2.4-21.7-1.2
	c-12,1.7-14.7,8.3-16.7,1.2C409.8,124.3,430.9,126.3,439.3,132.9z M406.3,188.6c0-0.1-0.1-0.2-0.2-0.3c-0.1-0.1-1.1-0.4-0.5-0.9
	c0.3-0.3,2.3,0.7,0.9,1.2C406.4,188.6,406.3,188.6,406.3,188.6C407,189.9,403.7,189.5,406.3,188.6z M393.6,185.5
	c5.7-4.7,4.6-2.4,5.3-10.9c2.4,10-2,8.9-4.9,13.3l2.7,4.4c1.4,1.6,0.2,0,1.4,1.6l-4.5-1.1l-1.7-5.7
	C393.3,185.5,392.2,186.7,393.6,185.5z M414.8,209.3c-3.3,1.8-5.6,1.7-7.8,0l9.9-1.5C416.1,208.2,416.9,208.1,414.8,209.3z
	 M424.6,191.1c-0.3,11.1-10.6,18.2-17.4,16.9c-4-0.7-2.3-0.4-2.5-2.1c-1.6-0.8-0.9,0.2-2.3-1.5c-1.2-1.4-0.6-0.8-1-2.2
	c-0.5-1.6,2-2.2-1.8-1c-5,0.1-2.1-2.9-8.3-0.8c0.4-1.1-1.3-1.6,1.8-1.5c5.1,0.1,8.6,1.1,15.6-1.8c4.8-2,10.5-5.8,14.5-8
	c2.2-5.1-1.6-2.8,3.5-3.3L424.6,191.1z M438,153.9l-0.9,2.4c0.1,0.1,3.2-0.4,0.2,5.1c-2.5,4.4-8.2,7.4-13.1,8.7l-6.9,3.4
	c-6.4-9.6-4.9-24.7,7.4-27c-0.1-0.1,0.4-2.6-5.5,0.6c-2.3,1.3-2.6,1.7-4.8,2.7c2-6.4,10.1-6.4,15.9-5c3.8,0.9,3.9,0.4,7.6,0.2l3,0.5
	C441.3,150.3,441.3,151.8,438,153.9z M468.3,163.9l1,2.1l-3-0.6c0.7-2.4,0-1.3,1.8-2.3c1.3-4,2.4-3.3,0.7-8.2c3.7,3,2.4,5.7-0.7,8.2
	C468.2,163.4,468.2,163.5,468.3,163.9z M249.7,283.7c-0.7-1.6-0.1-0.8-1.3-2.2c-0.7-0.2-1.1-0.2-1.3-0.2c0.1,0.4-0.6,0,0,0
	c0-0.2-0.2-0.4-0.6-0.9c-0.1-0.1-1-2.1-1.1-2.4c-0.7-2.3-0.4-4.2-0.2-6.5c-1.3-6.6-0.6-5.5-3-6.2c1.7-1.5,0.2-0.6,3-1.4l1.9,3.5
	c1.1,1.3,1.9,1.5,4,1.8c1.6,0.1,3.9,0.1,5.2,0.3c0.8,0.2,1.5,0.4,2.2,0.7c1.4,0.6,1.1,0.6,1.9,1.3l0.9-1.6l0-1.5
	c1.8-2.7,3.9-2.4,4.3-6.8c-3.2-4-8.8-3.5-8.5-10.9c0.6-11.6,11.1-11.3,10.2-45.3l-7.7,0.8l3.5,1.8l0.8,1.9c-0.8,0.5,1.3,1.4-3,0.5
	c-0.5-0.1-1.9-0.8-2.6-1c-7.2-1.8-15.8,1.5-20.2,2.3c0.6-0.9,0.6-1.4,2.1-2.5c2.2-1.7,6.4-2.8,9.3-2.8l1.8-0.9l-4.3-2.2l7.2-1.9
	l-0.8-0.5c-9.4,0.5-18.2,3.4-25.9,6.2c1-3.6,2.2-2.6,3-5.5c-3.8,0.7-8.8,5.2-11,7.5c-4.1,4.2-5.7,7.1-8.8,9l-0.2-4.5
	c-3.4,6-3.3,14-5.6,19.8c-5.8-3.5-6.6-11.5-6.4-20.2l-17.6,6.6c-0.7,6.8-4.1,23.1,11.9,26.3c1.3-1.2,0.1-0.1,1.9-1.1
	c1.8-1.1,0.3,0.1,1.5-1c3.6,0,1.1-0.3,1.9,1.1c0,17.1,7.3,27.1,14.1,36.8c-6.8-3.9-10.3-12.3-13-19.3l-2.3-3.8
	c-0.2,4.1-1.4,8.6-3,12.3c-1.8,4-4.3,6.8-5.4,8.9c6,0.4,11.5,1.6,16.8,3.5c4.6,1.7,11.4,4.6,11.8,9.4c2.7-1.2,1.4,1.3,2.3-1.3
	c6,0.9,11.6,4.9,18.5,3.7C244,294.1,246.5,288.8,249.7,283.7z M193.8,235.1c1.2-2.4,0.7-0.5,1.2-2.9l-4.4-6.4
	c-2.4-2.3,1-6.4,2.5-8.7c0,1.6-1.8,6.6-2.5,8.7c0.8,0.5,1.4,0.9,2,1.2c-0.7-1.7,4.7,2.7,0,0c0.2,0.4,0.7,1.2,1.8,2.5
	C196.7,232.1,197.7,234.1,193.8,235.1z M237.7,233.2c-1.1-2.1-0.6-1.5-2.1-3.2c0.2-0.3,1.2-1.4,1.2-1.4c1-1.5,0.6,0,1.1-2.3
	c2.4-7.1,16-5.4,21.4-0.2c-2.4,2.7-1.5,2.4-5,3.2c1.3,9.9-2.2,10.4-3.3,16.9C247.5,242.8,237.5,235,237.7,233.2z M370,345.6
	l-6.5,2.3l6.1-0.9c-1.4,3.8-1.8,2.4-3.2,4.5l-5.1,1.3c0.1,0.4-0.1-0.9,3,1.4c-3.4,1.2-3.5,2.6-7.6,3.7c-10.7,2.9-14.8,1.1-24.9,6.4
	c-9,4.7-19.8,9.4-29.2,13.2c-13.8,5.5-18.4,7.8-33.5,1.9l-28.1-13.2l6.2-5c2.6-2,3.1-2.5,5.1-5.1c2.9-3.7,5.8-7.9,6.7-13.6l1.2-1.7
	c2.6,0.8,8.3,4.8,10.6,6.5c3.3,2.3,7.3,5.4,11.3,5.6c3.5,4.2,32.3,0.6,39.3-0.5c11.3-1.7,9.2,0.5,16.8-16.3c1.8-3.9,2.6-4.2,7-5.4
	c4.1-2.4,4.2-2,5.8-7c3.3,1.1,1.5,3.7,0.8,6.4l-4.9,3.7l0.3,6c4.8,3.8,14.6,3.1,21.6,4.2C370.7,345,369.2,343.9,370,345.6z
	 M403.2,338.7c0.2,2.6,0.4,1.8,1.1,4.4c-3,2.2-13.8,5.7-18.2,6.2c-8.6,0.9-10.6-4.6-17.7-6.5c-7.8-2.6-12.7-1.9-20.1-2.6
	c1.4-3.1,5.7-6,8.4-8c-2.4,0.5-6.9,3.7-9.1,5.3c0.6-4.8,1-4.6,4.1-6.8c3.3-3.8,1-2,2.9-6c6.7-2.1,12.7,1.6,19,3.4
	c5.4,1.6,14.5,4,19.8,3.7c3.4,1.3,3.1,1,5.4,3.4C400.4,336.6,401.4,337.4,403.2,338.7z M288.5,333.8c2.9-5.8-0.1-8.9,3.7-13
	l-0.6,13.6c0.3-0.5,0.9-1.8,1.1-2.3c2.6-5.9,2.7-11.2,7.8-14.5c-3.4,4.8-6.9,13.1-8.1,19.4c3.2-0.6,3.2-0.5,4.6-3.1
	c0.8-1.4,0.5-1.5,1.3-2.9l1.9-2.3c0.5-4.9,3.5-7.7,6.8-9.6l-6.8,9.6l-2.7,7.3c3.1-0.9,4-1.2,5.7-3.4c2.2-2.9,1.1-3.4,4.9-5
	c1.9-5.1,7.3-5.1,12.1-7.1c-0.6,6.2-11.3,14.7-3,19.2c0.7-4.1-1.2-6.2,3.2-9.2c3.5-2.4,6.6-2.7,7.9-7.7c1,1.9-0.1,1.2,2.4,1.5
	c0.4,0.1,3-0.3,3.5-0.4c-0.1-3.9-5.4-8.8-8.5-10.3l-1.8,0.9c-2,0.2-1.8,0.8-1.4-0.9c-5.8-0.2-19.1-1.7-24.7,0.1
	c-1.5,0.5-1.6,0.7-2.9,1.4l-1.6,0.9c-1.3,0.7,0,0.1-1.6,0.8c-0.8,4.2-2.4,3.3-3,7.1C288.3,325.7,288.3,331.6,288.5,333.8z
	 M310.9,316.2l-2.6,1.8C308.7,315.5,307.9,316.7,310.9,316.2z M255.6,332.3c5.4-0.7,11.2,0.3,15.9-1.6c4.2-4.7,2.1-7.7,9.5-11.1
	c2.8-1.3,4.6-1.9,6.2-3.9c1.5-1.8,1.7-4.2,4.4-5.3c1.7,3.2,1.7,3.1,0.1,6.4c-4.4,2.7-4.6,8-4.7,12.2c-4.9,0-6.8,1.1-9.7,3.3l8.5-2.6
	c0.2,0.6,0.3,0.7,0.4,1.1c0.2,2.2,0.8,5.8,2.8,6.9c3.3,1.9,10.6,0.6,14.3-3.3c3-3.1,2.1-3.8,7.5-3.9c-1.8,2.8-7.7,8.7-10.2,9.6
	c-3.9,1.4-13.6,1.6-18.4,2c-19.2,1.9-6.2,5.1-22.3-4.2C257,336.2,255.5,336.1,255.6,332.3z M462.2,187.8c0.8,4,2.3,8.1,2.5,12
	c-6,2-21.7,13.3-24,20.2c-1.5,4.8-0.6,3.7-2.4,4.4c0.2-6.8-1.2-8.6-5.3-10.8c1.3-2.2,11.9-10.1,16.6-15.1c5-5.3,7.7-12.9,9.1-22.5
	l1.9-3.4c0.8,1.3-0.2,0.4,2.1,0.9l-0.5,1.4c-0.3,0.2-0.6,0.4-0.8,0.4c0.4-2.9-2,0.7,0,0c-0.1,0.4-0.2,0.9-0.3,1.6
	C460.6,179.7,461.7,185.1,462.2,187.8z M315.1,325.2c-1.2,2.8-0.5,1.4-2.3,3.4c-1.7,0.6-3,0.9-5-0.7
	C310.9,325.9,311,324.7,315.1,325.2z M314.6,324.1c1.5-2.4,1.8-2.1,4.5-2.7c-0.6,1.1,0.3,1.2-1.6,2.5
	C315.5,325.2,316.9,324.4,314.6,324.1z"/>
<path class="st11" d="M256.5,274.8c-3.5,0.8-4.9,0.1-8.4-0.6c-0.9-2.8-1.1-3-2.5-5.8c5.2,2.4,0.8,0.6,5.6,4.7
	c0.1-0.1,0.2-0.1,0.3-0.2c0,0.2,1-0.8,0,0c0,0,0-0.1,0.2-0.3l0.4-0.7C257,273.3,255.3,272.5,256.5,274.8z M418.7,152
	c1,0,1.1-0.2,1-0.2c0.1,0,0.2,0.2,0.7,0.4c0.1,0.1,0.5,0.3,0.6,0.3c0.1,0.1,0.3,0.3,0.4,0.5c2.6,1.7,2.6,1.8,4.6,4.2
	c0.5,0.4,0.3-0.2,1.2,1.4c0.1,0.1,1,2.2,1.1,2.4c0.6,1.9,0.7,3.7,1,5.7c4.2-1.8,7.9-5,7.8-10.3l0.9-2.4
	C436.1,147.4,422.6,146,418.7,152z M423,189c-2.1,2.4-6.7,5.8-10.4,8c-4.9,2.9-10.1,2.6-13.1,4.2c3.9-1.1,1.4-0.6,1.8,1
	c4.1,0.7,6.6-0.3,10.3-0.9c-0.2,0.2-0.5,0.1-0.6,0.5l-5.7,1.9c-0.5,0.6-0.7,0.7-0.8,0.7c0.1,0.1,0.2,0.3,0.2,1.5
	c12.5,1.7,16.3-5.4,19.1-15.5C424.3,187.8,424.3,189.5,423,189z M248.8,224.3c-3.1-2.2-8.4,0.5-10.9,2.1c-0.5,2.2-0.1,0.8-1.1,2.3
	c0,0.1-1.1,1.2-1.2,1.4c1.5,1.7,1,1,2.1,3.2c1.7,2,7.1,6,9.8,8.2C248.4,240,245,231.4,248.8,224.3z M392.2,168.5L390,165l-5.4-2.5
	c2.5,1.8,0.1,0.1,2.3,2.5c1.8,2,1.4,0.5,2.6,3.4c1.5,3.4,1.4,6.1,1,9.8l4.2-0.1c-0.3-2.3-0.6-3.4-1.2-4.8
	C392.2,170.5,392.2,171.8,392.2,168.5z M421.2,163.5c1.3,1-2.1,1,2.9,1l0.5-2.8l-3.1-0.4L421.2,163.5z M253.6,230.5l-1.1-1.5
	l-2.6,0.2c0.7,2.1,0.3,1.6,1.3,2.9L253.6,230.5z M384.7,168.7c-1.1,2-0.8,0.2-0.3,2.4c2.1,0.7,1,0.6,2.7,0
	C386.1,168.2,387.2,169.6,384.7,168.7z"/>
<path class="st12" d="M345.4,466.8c-1-2.6-1.2-0.9-1.6-4.2c25.1-1.2,46.2,12.1,69.5,15.4c-1.1-0.7,0.6,0-1.9-0.9l-49.5-14.2
	c-3.2-0.7-6.5-1.3-9.9-1.5c-14.3-0.7-15.3,3.8-0.5-22.2c14.9-26.2,41.3-61.3,51.8-81.3c1.9-3.6,0.5-2.8,4.5-4
	c9.3-2.8,8.4,0.3,19.4,2.8c9.5,2.2,20.4,2.2,30.8,2c13.8-0.2,17.3-2.9,28-5.5c4.3-0.5,1.8-1.6,4,0.7c1.1,48.1,2.6,75.2,9.1,121
	c0.7,4.9,1.5,5.6,0.8,9.9c-0.1,0.4-0.1,0.7-0.2,0.9c-0.3-1.5-0.3,0.9,0,0c0,0.1,0,0.1,0,0.2c0,0.2,1.2,2,1.4,3
	c-0.7,1.6,0.5,0.5-1,1.4c-8.8-4.4-28.4-2.8-39.6-2.6C401.7,488.7,387.3,469.6,345.4,466.8z M455.8,300.4c-18.8-0.5-11.5-2-23,7.4
	c-2.5,2-6.3,4.6-9.4,6.7c-3.4,2.4-6.4,3.8-9.9,6.5c3.1,4.4,4.6,1.7,8.2,7.4c2,3.2,4,7.1,4.7,11.6c9.7-4.1,21.9-10.7,33.5-15.3
	c15-6,16.1-12,24.1-24.1c5.5-8.3,12.5-21.3,16.8-31.5c5.1-12,9.6-27.6,3.1-39.6c-12.9,1-32.1,13.9-37.6,22.1c-3.2,4.8-6.7,14-9.6,20
	l-10.9,20l11-3.5c-12.9,8.4-16.2,2.7-17.3,11C447,298.8,449.2,299.1,455.8,300.4z M352.1,320.9l1.1,2.2c0.2,0.1,32.8-4.4,40.2-13.9
	c2.5-3.3,5.5-7.4,7.8-10.8c2.9-4.2,4-5.8,5.4-12.4c6.4-30-1.8-9.6-5.5-44.5c-2.3,2.2-17.7,27.9-21.6,34.4c-2,3.3-6.2,8.3-7.4,11.1
	l10.7-2.8c0,0-13.5,5.3-15.4,7.5c8-0.2,7.2,0.3,13.7,2c-25.1-0.3-6.4-2.9-30,8.9l-9.3,5.1C350.9,311.9,350.3,316,352.1,320.9z
	 M489.9,539.6c1.8-0.5-2.8-1.8,2.3-0.3c3.6,1.1-0.6,3.1,5.6,1.5c7.5-1.9,0.8,1.2,7.5,1.6c1.6-3.2,1.2-7.1,0.8-11.6
	c-21.6-7.2-48.3-4-72.8-5.3c-6-0.3-11.7-1.5-17.5-2.2c-10.5-1.2-22.1-3.6-32-7c-5-1.7-10.1-4.6-14.7-5.8c1.4,4,3.4,8.8,5.7,11.4
	c6.6,2.3,3.1,2,5,4.7c6.6,1.3,1.5-3.1,6.1-0.6c4.4,2.4-1.3,3.2,4,3.7c4.5,0.4-1,0,2.9-0.9c3.7-0.8,2.3,2.2,5.7,3.9
	c2.5-1.1,2.5-3.7,5.2-0.8c2.8,2.9-2.3,1.6,2.5,2.7c5.4,1.2,0.2,0.2,3.1-1c0.1-0.1,0.8-2.1,3.8-0.2c3.2,2-0.4,0.2,2,2.5
	c4.3,4,3.1-5.1,7.9-0.4c7.9,7.7,1.5-1.1,7.9,0.5c4.8,1.2-1.8,4,3.9,3.3c4.8-0.6-1.9-2.3,6.1-2.7c0.8,2.4-1.2,5.6,4.7,2
	c6.7-4.2,3.6,0.9,7.2,1.2c5.5,0.5-0.9-2.2,5-1.9c5.3,0.3-0.6-0.2,2.7,1.6c2.7,1.5,2.7,0.1,4-0.8c0.6-0.4-1.6-0.9,1.8-1
	c2.5,0,0.2-0.1,2,0.9c7.5,4.4,3.3-1,7.3-1c4.6,1.9,0.5,1.8,3.8,2.5c4.8,1.1,0.5-0.4,3.6-1.5c3.9-1.3,1.4,0.4,3.5,1.3
	C489.3,541.1,489.9,539.6,489.9,539.6z M397.3,320.4c2.1,1.4,5,2.5,8.4,3.2c2.7-0.8,3-1.7,4.5-2.8c4.3-3.2,4.8-8.7,6.7-16.9
	c2.1-8.8,3.9-17.6,5.6-26.7c1.7-9.1,4.2-25.5,4.5-35.4c0.1-4.4,0-2.5-2.1-5.6c-2.9-4.4-2.2-7.8-4-11.4c-2.1,5.4,0.8,9,2.3,13
	c-3.1-3.3-3.8-6.6-3.5-12.5l-5.3,1.4c-0.3,2.3-0.9,12.7-0.6,15.4c0.9,8.6,0.8,8.1-0.7,16.1c-1.2,4.4-1.7,11.7-2.3,16.5
	c-0.8,5.7-2,10.7-3.3,16.2C405.2,300.6,401.4,312.2,397.3,320.4z M503.5,268.5c-4.1,5.7-6.6,14-10.3,20.1
	c-3.8,6.2-7.7,12.4-11.1,18.5c-4.2,7.5-6.8,12.4-14.4,16.1c-3.8,1.9-18.1,7.7-19.9,9.5c12.5,0.7,23.2,0.5,35.1-1.6l2.6-1
	c3.9,0.2,5.3-1.1,9.2-2L503.5,268.5z M391.1,517.5c11.6,3.2,23.8,4.7,36.1,6.3c12.5,1.6,27.5,1.2,40.9,1.3
	c7.3,0.1,13.6-0.3,20.9,0.6c5.1,0.6,13.7,3.3,17,3.5l-0.2-6.7c-6.5-1.8-9.5-3.2-17.4-4.1c-26.8-3-53.4,7.6-95.3-6.4l-21.7-8.8
	c-9-4.1-5.7-2.3-6.7-1.4c3.2,8,2.9,7,10.7,10.2C380.5,514.1,385.8,516,391.1,517.5z M517.3,607.6c-3.9,0.4-10.6-0.2-15.2-0.3
	c-5,0-8.9,1.9-13.3-1.3l0.9,5.1c3.3,6.4,24.8,8.2,31.3,4.3C521.4,612.4,519.3,609.1,517.3,607.6z M462.3,240.9
	c-0.5,0.3-0.9,0.5-1.6,0.9c-0.1,0.1-0.4,0.2-0.5,0.3l-3.4,24.9l12.6-24.1c-0.1-3.3-0.5-1.5,1.6-4.5l7-8.3c3.2-3.2,8.3-7.6,13.1-8
	l-10-4.8c-3.3-0.3-1.3,2.8-4.1,8.3C473.8,231.9,468.2,237.3,462.3,240.9z M431,242.2c-0.8,14.6-6.4,46.3-9.9,61.6
	c-1.9,8-3.3,9-1.1,11.5c4.6-20,12.7-58.4,13.5-78.2l0.4,4.2c1-1.5,1.3-2.2,0.9-4.7c-0.8-4.8-0.7-2.6-2.3-3.3
	c-1.9-1.1-2.7-1.7-3.6-4.7c-1.7-5.6,0.3-6,0.4-6l-0.2-0.7c-1.4,0-1.1,0.4-1-0.9l-1.5,1l-0.4,1.3C424.5,231.1,431.7,230.1,431,242.2z
	 M445.9,281.9l4.3-37.2c1.5-14,1.5-6.1,10.9-16.2c3.1-3.4,11-9.6,11.6-15.4c-1.1-2.5-0.7-1.3-1.8-2.2c-2.4,6.2-2.7,2.4-5.1,8.3
	c-1.4,4-10,11.6-14.8,13.7c-0.7,0.6,0.8,0.3-1.2,1.2c-0.6,0.3-0.7,0.5-0.7,0.6c0-0.1-0.2-0.4-0.7-0.9l-0.8,2.5
	c3.1,5-1.8,35.7-2.7,42.2c-0.3,2.1-0.4,5.3-0.7,6.7c-0.6,3-1.3,4.3-1.6,6.7C445.7,291.6,444.9,288.6,445.9,281.9z M429.3,342.8
	c6.7,1.6,25.7,1.5,32.1,1.1c6.5-0.4,22.4-2,28.7-4.2l2.3-1.3c0.1-0.3,0.4-0.3,0.5-0.5c-1.4-0.8,2.3-2-3.6-0.1
	c-33.8,10.6-53.6-0.3-62.5,2.5C427.4,342.6,425.2,341.8,429.3,342.8z M396,329.3l0.5-1.1l-2.1-0.9l-1.3,1.5L396,329.3z"/>
<path class="st13" d="M485.9,353.3c-2-0.8-9,2-14.7,2.9c-14.9,2.4-40.9,1.7-53.9-3.8c0.1-0.2,0.4-0.6,0.4-0.4l2.1-1.3
	c0.3-0.1,2.5-0.8,3.1-1.1c4.1-1.6,3.1-1.4,4.5-5.1c13.6,0.4,12.1,1.9,31.6,1.3c12.6-0.4,19.7-2.8,30.4-4.6l0.1,9.4
	c0.1,2.3-0.3,0.1,0.4,3.3C487.6,351.6,490.1,352.8,485.9,353.3z M480.2,217l-2.8-1.2c-1.6,2.1-2.9,5.2-4,7.2
	c-5.3,9.3-16.3,15.5-17.2,16.7c-1.2,1.6-5.1,34.1-5.5,38.6c2.8-1.3,4.2-7.4,4.3-10.7c0,0,0,0,0,0c-0.5-1.1,0.6-0.6,0,0
	c0.2,0.4,0.5,0.9,1.1,1.6l0.7-2.2l3.4-24.9c0.1-0.1,0.4-0.2,0.5-0.3c0.7-0.4,1.1-0.6,1.6-0.9c5.9-3.6,11.5-8.9,14.7-15.3
	c2.5-5,1.1-8,3.4-8.3C480.3,217.2,480.3,217.1,480.2,217z M494.7,602.5l-2.9-1.5c1,1.1-2.1-0.2-0.3-0.2l0.3,0.2
	c-0.2-0.2-0.5-0.5-1.1-0.9c-1.4-1-0.1-0.7-1.9-1c0.2,3.8,0.7,2.4,0.1,6.2c-0.3,1.7-1.4,5.2,0.9,5.9l-0.9-5.1
	c4.4,3.1,8.3,1.2,13.3,1.3c4.6,0,11.3,0.7,15.2,0.3C515.3,599.3,500.3,605.1,494.7,602.5z M490.7,332.6c3.2-1,3.2-0.5,3.5-4.1
	c-1.6,0.5-2.7,1.1-4.3,1.7c-0.6,0.2-1.9,0.5-2.6,0.5c-2.2-0.1-0.7,0.1-1.9-0.6l-2.6,1l2.3,0.7c-7.2,0.4-13.4,2.6-22.2,2.6
	c-8.4,0-18.8-2.2-22.4,1.2C455.7,337.4,476,337.4,490.7,332.6z M491.5,503.3l-2,1.9l5.6,0.2l2.5,0.7l-0.6-0.6
	c3.1-1.8,1.9-1.2,6.2-0.5l-0.6-1.7l-3.8-0.4l-0.4-2.9l-1.8,3.7l-0.7-2.8c-0.8-2.6-0.3-1-1-2l0.1,4.6L491.5,503.3z M442.2,253.3
	c0.6-2.4,1.6-16.1,0-17.3l-1.6,20.3C441.9,254.9,441.6,255.8,442.2,253.3z M480.1,503.4c1,1.8,1,3.3,3.1,3c2.3-0.3,2-2.4,2.3-4.2
	C481.7,501.3,482.4,501.1,480.1,503.4z M399.7,492.5c-2.4,1.5,0,7.7,4.8,0.4C401.2,492.3,402.1,491,399.7,492.5z M376.5,485.3
	c-2.8,1.4-3,0.8-2.2,4.2l3.3,0.6C378.8,484.9,377.1,485.9,376.5,485.3z M453.3,505.1c2.9-0.6,3.3-1,4-3.6
	C453.1,499.1,451.7,502.5,453.3,505.1z M435.6,253.8l0.6-3.6c0.6-4.8,1.7-9.9,0.7-14.8L435,255c0.1-0.2,0.3-0.4,0.3-0.6
	C435.4,254.3,435.6,254,435.6,253.8z"/>
</svg>
