<?xml version="1.0" encoding="utf-8"?>
<!-- Generator: Adobe Illustrator 19.0.0, SVG Export Plug-In . SVG Version: 6.00 Build 0)  -->
<svg version="1.1" id="Layer_1" xmlns="http://www.w3.org/2000/svg" xmlns:xlink="http://www.w3.org/1999/xlink" x="0px" y="0px"
	 viewBox="0 0 288 240" style="enable-background:new 0 0 288 240;" xml:space="preserve">
<style type="text/css">
	.st0{fill:#000002;}
	.st1{fill-rule:evenodd;clip-rule:evenodd;fill:#414648;}
	.st2{fill-rule:evenodd;clip-rule:evenodd;fill:#FFFFFF;}
	.st3{fill-rule:evenodd;clip-rule:evenodd;fill:#EB7E3C;}
	.st4{fill-rule:evenodd;clip-rule:evenodd;fill:#744229;}
</style>
<path class="st0" d="M188,177c-3.7,1-9.3-2.3-12-4.1c-2.3,4.3-2.4,4.3-5.3,7.7l-3,3.5c-3.9,4.2-8.9,8.9-14,11.5
	c-0.8,0.4-1.4,0.7-2.1,1c-0.7,0.3-1.6,0.5-2.3,0.8c0.3,1.1,3.7,5.8,2.4,9.5c-1.3,4-11.8,5-15.1,4.6c-8.1-0.9-14.7-1.3-12.9-10.5
	c0.3-1.3,0.5-2.1,0.9-3.1c0.4-1.1,0.9-1.7,1.2-2.8c-1-0.3-3.7-2.5-4.5-3.2c-1.3-1.2-2.8-2.4-3.8-3.6l-3.3-4
	c-1.2-1.6-1.8-2.8-2.7-4.6c-3.3-6.8-1.8-18.7,1.2-24.5c-3.3-0.9-7.4-6-8.5-9.9c-0.8-2.7-0.8-5.4-0.2-8.4c0.3-1.5,0.5-2.4,1-3.6
	c1.7-4.8,1.9-2.8-5-11.1c-4.7-5.6-9.4-5.1-10.8-7.4c-1.2-2,0.1-1.9,1.9-1.9c-0.2-1.9-3-5.3-4.1-6.9c-3.3-4.5-3.5-7.3-5.3-10.9
	C80,91.5,74.5,89,74,87c1.7-2.5,2.9-2,4.8,0.2c0.4-0.1,0.3,0.6,0.3-0.7c-0.6-0.4-1.4-3.5-1.4-4.6c1.5-0.8,1.3-0.9,3.7-0.9
	c0.9,1.3,1,1.3,1.2,3.4c0.1,1.4,0.5,2.2,0.8,3.4c2.2-2.5,1-6.6,3.4-6.7l1,0.3c3,1.6-1,2.8-1,10.4c0.8-0.5,1.3-1,2.4-0.2
	c0.1,0.1,0.7,0.9,0.8,1c0.5,1.2-0.1,1.7-1.3,3.3c-2.6,3.4-0.6,2.9,1.4,5.6c0.9,1.2,1.5,2.7,2.2,4c3.2,6.5,1.3,0.5,4.2,5.1
	c2.8,4.5,8.4,12.7,12.4,15.4c1.1-1.7,4.9-6.3,6.8-6.8c-0.2-1-0.7-1.5-1-2.7c-0.9-2.6-1.8-10.2-1.8-12.9l0.1-17.3
	c0.1-1.2,0.3-1.9,0.2-3.4c0-3.8,1.4-13,2.2-16.2c1-4,2.3-7,6.2-8.5c5.4-2.1,6.4,1.1,9-1.5c2.6-2.7,6.7-7,9.6-8.8
	c3.9-2.5,6.2-2.5,11.9-2c0-4.2,0.2-6.9-1.2-9.8c-0.8-1.7-1.8-2-1.4-3.8c0.2-0.7,0.3-0.1,0.1-0.8c-0.2-0.5-1.1-1.5-1.4-2.5
	c1.5,0,3.2,0.4,3.8,1.6c0.8,1.7,3,10.2,3,12.3c0.9-0.6,1.7-4.6,2.2-6.3c1.4-4.2,2.2-8.1,5.4-11.7c1-1.1,3.2-3.6,4.3-3.6
	c0-0.1,0.1-0.2,0.1-0.3c0-0.1,0.1-0.2,0.1-0.2c0,0,0.2-0.3,0.3-0.3c0.8,0.2,1.3,0.6,1.7,1.1c-0.6,0.9-3.8,2.5-4.3,4.3
	c3.4-1.8,5-3.3,9-4.4c1.8-0.5,4.7-1.7,4.9,1.2c-2.7,0.2-4.6,0.5-6.5,1.7c-2,1.2-8.7,4.6-9.9,6.5c-1,1.5-1.2,4.2-2.2,5.6l-0.4,0.4
	c0.4,1.3-0.7,3-0.8,4.5c1.4-1.6,0.7-0.5,2.2-1.5l3.7-3.6c2.8-2.3,2.7-2.5,7.3-3.4c1.4-0.3,4,0,5.4,0.4c0.6,0.2,0.3,0,0.6,0.3
	c0.9,0,1.2,0.1,2,0.3c0,0,0.8,0.3,0.8,0.3c0.7,0.5,0.2,0,0.7,0.7c2.7-0.9,1.4,1.8,0.8,2.8c-1.1-0.1-3.8-1.2-6-1.6
	c-2.4-0.4-4.1-0.1-6.2,0.4c-2,0.5-7.2,5.2-8.1,6.6c1.1-0.3,0.5-0.2,1.1,0c0.5-0.7-0.3-0.4,0.9-0.8c0.3-0.1,0.9,0,1.2,0
	c1-0.5,2-0.3,3.3-0.3c-0.3,3.2-2.7,1.8-4.6,3.1l-3.9,3.5c1.8,0.4,4,2.9,5,4.4c2.7,4.2,2.1,6.5,1.1,11.1c-0.6,2.8-1,9.9-1,12.9
	c3.7,2,6.8,8.6,5.1,14.2c-1.6,5.4-7.2,10.4-11.2,14.3l-7.4,7.9c-0.6,0.6-0.6,0.8-1.1,1.4l-5.9,6.8c-0.9,0.9-1.8,1.6-2.5,2.6
	c3.9-0.3,13.6-6.8,17.2-9.2l5.4-3.1c5.7-2.4,4.7-3.4,6.6-4.7L170,102c0.8-0.4,2-0.9,2.7-0.3c1.1,0.2,0.5-0.4,0.7,0.6l0.8,1.7
	c0.3-1.2,1-2.1,1.4-3.2c2.4-5.8,0.5-8.1,4.3-8.5l0.3,0.3c0.7,0.8,1.2,1.8,0.8,3.3c-0.5,1.4-1,2.3-1.3,3.8c3.3-2.2,7.1-5.5,7.1,0
	c-1,0.7-2.3,1.8-3.7,1.7l0.7,0.4c0,0,1-0.1,1-0.1c2.4-0.1,1.8,0.2,2,0.6c0.4,0,0.1-0.3,0.6,0c0,2.7,0.1,2.8-2.5,2.9
	c-1.3,0-3.5,0.3-4.7,0.7c-1.8,0.5-5.8,2.4-6.3,4.4l1.1,0.3l-12.8,7.1c0.9,0,1-0.1,1.7-0.3c2.6,4.9-1.3,2.6-8.3,5
	c-2,0.7-3.2,1.6-4.8,2.6l-4.2,3.2c0.3,1.2,0.9,1.9,1.4,4.3c0.4,2-0.2,1.2,3.5,0.8c3-0.3,7,0.3,9.8,1.2c4.9,1.6,10.2,4.5,13.1,8.7
	c1.8,2.6,3.9,7,4,10.4c3.2-1.7,9.2-4.2,12.4-0.8C195.8,158.3,194.1,175.3,188,177z"/>
<path class="st1" d="M144.9,110.9c-2.5,3.1-1.7,5.5-7.2,5.7c-3.6,0.1-7.6-1.1-9.8-2.9c-2.7-2.3-3.5-4.4-4.2-8.8
	c-0.6-3.2-0.9-8.5-0.9-11.9c0-3.3,0.7-19.6,2.1-23.2l0.2-0.4c0.8,2.3,0.7,6.2,2.9,11.6c0.9,2.1,1.5,3,2.7,4.7c1,1.6,2.2,2.5,3.2,3.9
	c0,2.5-1.9,6-0.6,8.5c0.9,1.7,3.2,3.1,5.5,3.9c11.3,4.1,11.1-3.4,12.8-4.2l5.6-0.6c-0.3,1.1-0.7,1.1-1.5,2c-0.6,0.6-0.9,1-1.5,1.6
	C149.8,105.2,149.5,105.3,144.9,110.9z M155.4,164.2c-8.2,2.2-6.4,14,2.7,11.5c3.2-0.9,5-5.6,4.9-7.4
	C163.1,165.2,158.9,163.2,155.4,164.2z M137.9,155c-3.2,0.8-6.2,2.3-6.5,5.8c-0.6,6.2,8.6,6.7,11.1,3.6c0.9-1.1,1.7-2.5,2-4.3
	C145,157.4,141.5,154.1,137.9,155z M133.8,138.3c1.1-1.2,1.4-2.6,0.9-4.6c-0.9-3.5-3.2-4.9-7.3-3.9c-3.8,1-5.2,2.4-4.5,6.7
	c0.3,2.1,0.8,2.6,2.6,3.2C128.9,141,131.2,141.1,133.8,138.3z"/>
<path class="st2" d="M168.1,139.1c-4.6-3-13.5-6.5-20.1-4.1c-0.3,4.3-3,7.5-5.1,9.1c-7.1,5.6-19.3,14.3-29.2,11.6
	c-2.6,5.1-3.4,16.3-1.5,22c2,5.8,7.7,11.4,11.2,14.3c5.1,4.1,10.5,7.1,19.4,5.9c7.1-0.9,13.4-4.7,17.4-8.1c4.5-3.9,9-8.6,12.3-13.5
	C180,165.1,179.8,146.8,168.1,139.1z M145.3,160.9c-0.9,3.8-3.5,6.2-7.9,6.1c-4.2-0.1-7.4-2.5-6.6-7c0.6-3.7,4.4-5.3,8.2-5.9
	C142.2,153.6,146.2,157.4,145.3,160.9z M161.9,173.5c-1,1.6-1.7,2.4-3.9,2.9c-10.2,2.5-11.6-11.2-2.8-13.1
	C160.4,162.2,167,165.6,161.9,173.5z M117.3,119.9c4.2,4.9,16.7,8.9,23.7,3.6c4.5-3.4,10.6-12.6,15.4-16.9
	c2.9-2.6,10.1-10.4,11.8-13.9c1.7-3.4,1.7-6.8,0.1-10.4c-1.7-4-3-4.7-8.1-4.9c1.5-0.9,2.1-0.3,3.7-0.8c0.2-9,2-10.3-1.5-15.8
	c-0.9-1.3-1.7-2.4-3.2-3c0.6-1.5,1.3-1.7,2-3.1c1.4,0.4,2.2,1.7,2.9,2.7c1.2,1.7,1,1.7,1.3,4.1c2.4-13.2-14.7-16.8-22.1-13.9
	c-3.5,1.4-10.6,8-13,10.9c0.6,0.9,1.2,1,2,2.4c0.6,1,1,2,1.2,3.1c-1.9-2.8-2.6-5.2-7.3-5.3c-4.3-0.1-7,1.7-8.3,4.5
	c-4,8.9-4.4,36.7-3.4,46.8C114.9,113.5,115.4,117.6,117.3,119.9z M139,53.1c4.9-4.2,11.2-4.3,17-2.1c-0.5,1.4-1.3,2.8-2.2,3.8
	c-7.1-2-8.6-0.8-15.7-0.5C138.7,53.2,138.2,53.8,139,53.1z M139,57.9c1.9-1.5,5.3-3.3,8.6-2.3c3.9,1.2,3.8,5.2,4.1,7.5
	c0.9-0.5,1.2-1,2.5-1.6c3.5-1.3,6.5-0.7,7.6,3c0.7,2.4,0.4,5.1-0.7,6.7c-1.8,2.6-2.7,1.8-5,3c0.6,2.9,2.5,9,1.7,11.6
	c-3.5,0.9-10.7-2.6-13.1-4.1c-1.8-1.2-3.1-2.4-4.3-4.2c-1.4-2,1.1-4.3,1.8-5.8C134.9,70.5,133.8,62,139,57.9z M123.5,64.8
	c2.2-0.9,4.9-0.8,6,1.1c-1.1-0.5-2.2-0.8-3.7-0.8c-0.1,14.4,6.6,24.1,15.7,28.9c5,2.7,12.9,3.6,18.7,1.5c5.8-2.1,3.3-11.7,1.9-14.1
	l-0.9-0.8c-0.1,0-0.1-0.1-0.2-0.1l-0.7-0.5c1.9-0.3,4,0.1,4.7,1.7l-2.3-1.1c1.5,3.3,3.6,9.8,0.9,13.5c-2,2.8-2.3,0-7.3,5.5l-6.2,6.5
	c-1.4,1.6-2.5,2.7-4,4.5c-2.7,3.4-2,7.5-10.5,6.6c-12.2-1.3-12.9-10.4-13.4-20.5c-0.4-7.3,0.1-16.8,1.5-24c0.5-2.4,1.4-5.2,1.5-7.6
	c-2.4,0.5-4.6,2-5.7,3.2C120.5,66.7,121.3,65.8,123.5,64.8z M118.1,155.4c4.4-0.3,11.4-3.3,14.5-5.3c3.5-2.2,5.9-3.7,9-6.3
	c5.6-4.6,7.5-10.1,2.6-16.7c-4.2-5.7-4,1.1-15.1-0.5c-5.8-0.8-9.3-2.9-13-6.8c-4.2,1.8-14.9,16.8-9.8,27.3
	C108.1,150.6,112.7,155.8,118.1,155.4z M128.4,128.9c9.7-1.4,9.3,12.9,0.6,12.5c-3.9-0.2-6.8-1.5-7-5.9
	C121.7,131.1,124.3,129.5,128.4,128.9z M192.5,165.8c-0.3,3.5-1.8,9.6-4.9,10.1c-1.8,0.2-4.7-0.7-6.2-1.3c-2.8-1.1-2.7-1.3-4.8-2.9
	c0.2-1.4,1.2-3.6,1.7-7.7c0.5-3.5,0-6.2,0.2-9.3c2.4-1.7,8.8-4,11.4-1.4C192.3,155.8,192.8,161.5,192.5,165.8z M148.3,197.8
	c1.3,2.3,4.3,7.8,1.5,10c-4.6,3.6-20.6,3.3-23.8-0.3c-2.2-2.5-0.7-9.4,1-11.6c3.1,1.2,4.8,2.9,9.6,3.2
	C141.3,199.6,144.1,198.6,148.3,197.8z M144.1,70.1c2.2-1.7,3.5-0.5,4.9-2.2c1.1-1.3,2-3.2,1.8-5.4c-0.3-3.8-3.9-6.4-7.9-5.7
	c-3.6,0.7-6.8,3.8-6.4,8C136.8,68.4,140.9,72.7,144.1,70.1z M142.5,61.3c3.6-1.8,6.1,3.6,2.7,5.3C141.6,68.5,138.9,63.1,142.5,61.3z
	 M134.1,97.7c-0.7-1.4,0-5.7,0.8-6.9c2,1.5,3.7,3.2,6.7,4.6c2.9,1.4,5.6,1.9,9,2.3c-0.1,1.1-2.7,4.4-3.9,4.6c-2,0.3-5.6-0.3-7.5-0.9
	C137.2,100.6,134.8,99.1,134.1,97.7z M151,66c2-4.8,6.3-4.3,8.2-2.8c4.3,3.4,2.2,9.9-3.4,10l-1.3-2c4.5-1.5,2.7-4.7,1.7-5.4
	c-1-0.8-4-1.6-4.7,2.4l-0.2,1C149.6,68.6,150.6,67.1,151,66z"/>
<path class="st3" d="M145.1,80.8c-1.5-0.9-1.3-0.7-2.6-2.1c-0.6-0.7-1.7-1.4-1.8-2.5c-0.1-1.7,2.5-4.6,3.3-5.2
	c2.2-1.9,9.2-2.8,11.1,2.9c-1.3-0.3-1.7-1.2-3.6-1.3C147.8,72.3,144.3,75.3,145.1,80.8z M156.1,78.4c0.4-4.7-5-6.9-8.3-4
	c-2,1.7-4.7,7,1.6,8.9C149.7,79.1,151.8,76.7,156.1,78.4z M156.8,80.7c-0.9-4.2-7.4-2.8-6.8,2.8c1.8,0.7,5.3,1.9,7.3,1.8
	C157.5,83.8,157.1,82.1,156.8,80.7z"/>
<path class="st4" d="M108.4,127c-0.2,1-0.7,1.6-1.2,2.5c-0.6-0.3-0.1,0-0.5-0.5l-4.9-6.4c-3.6-3.4-4.7-4.8-9.7-6.8
	c-1.6-0.6-1.7-0.1-2-1.8l2.6,0.5c-1-5.4-4.7-7.1-7.9-14.8c-1.4-3.3-1.8-5.3-4-7.4c-1.5-1.5-5.4-4.4-5.7-5.3c0.5-0.7,0.7-0.7,1.7-1.1
	c0.7,0.7,1.1,1.2,2.2,1.3c0.4-0.1,0.3,0.6,0.3-0.7c0.6,0.7,0.1-0.8,0.6,0.8c-0.1,0.1-0.2,0.1-0.2,0.2c-0.8,0.8-0.6,0.3-0.3,0.7
	c0.3,0.5,0.9,0.5,1.5,0.6l-2-6.6c4.1-1.8,2.5,1.9,4.1,5.4c0.5,1.1,0.8,1,1.1,1.2c0.4-0.9,1.1-1.9,1.5-3.3c0.3-1,0.6-2.6,1.2-3.7
	l1.5,0.3c0.2,1.4-1.3,3.9-1.7,5.8c-0.7,2.8,0.1,4.4-0.3,6.6l2-2.6c3.1,0.3,0.1,3.5-0.4,4.3c-1.9,2.5-0.3,3.5,1.2,5
	c1.3,1.3,2,3,2.9,4.8c2.5,4.8,2.2,2.8,3.4,4C95.5,110.4,101.1,121.3,108.4,127z M183.9,102.3h2.9c-0.2-0.4,0.4-0.7-2-0.6
	c0,0-1,0.1-1,0.1l-0.7-0.4c-1.2,1-0.5,1-1.6,0.8c0.8-1.1,1.5-1.4,3-2c3-1.3,1.2-2.7,0.9-2.8c-0.9-0.3-2.3,1.1-3.2,1.6
	c-1,0.6-2,1.2-3.3,1.5c0.4-3.5,2.8-5.9,1.2-7.1c-2.6-1.1-2.2,3.9-2.9,6.1c-0.6,2-1.8,4.7-3.2,6l-0.7-2.6c0-0.2,0-0.3,0-0.3
	c-0.1,0.1,0-0.2,0,0c0,0,0.1-0.1,0.2-0.2c-0.2-1,0.4-0.4-0.7-0.6c-0.5,0.6-0.7,0.4-2,0.5c0.4,1.6,1,3.3,1.2,4.7
	c-2.1,1.9-1.3,3.1-6.2,5.4c-7,3.2-12.3,8-18.4,10.8c-1.3,0.6-3,1-4.2,1.6c0.4,0.6,0.7,0.5,1.2,1.1c0.7,0.8,0.4,0.9,1.2,1.5
	c1-0.4,4.5-3.6,7.7-5.3c3.7-1.9,6.7-1.6,10.7-2.5c-0.1-1.3,0.1-0.2-0.4-1.4c-1.1-0.1-4.2,0.8-5.7,1.1c1.6-2.2,13.4-8.1,15.5-8.4
	c-0.6-1.5-0.5-1.5,0.3-3c0.4-0.1-0.5,1,1.2-0.3c2.1-1.5,2.2-2.3,5.7-2.9c4.4-0.8,5.5,0.2,6-1.2C187.2,102,184.8,102.4,183.9,102.3z
	 M157.8,42.1c0.5-1.9,1.5-4.4,1.8-6.3l0,1l0.4-0.4c1-1.4,1.2-4.1,2.2-5.6c1.2-1.9,7.9-5.3,9.9-6.5c1.9-1.2,3.9-1.5,6.5-1.7
	c-0.2-3-3.1-1.7-4.9-1.2c-4,1-5.6,2.6-9,4.4c0.5-1.8,3.6-3.4,4.3-4.3c-0.4-0.6-0.9-0.9-1.7-1.1c-0.1,0.1-0.3,0.3-0.3,0.3
	c0,0.1-0.1,0.2-0.1,0.2c0,0.1-0.1,0.2-0.1,0.3l0.7,0c-3.3,1.7-6.9,6.9-8.3,10.8c-0.3,0.8-4.3,13.9-4.2,14.5
	C156.8,47.1,157.2,44.3,157.8,42.1z M177.6,33.6c-1,0.1-2.4-0.3-3.3-0.4c-2.9-0.2-6.2,1.1-8.3,3c-0.5,0.4-0.8,0.6-1.3,1l-2.2,2.4
	c-0.5,0.5-0.6,0.8-1.2,1.1c-1,0.7-0.8,0.1-1.5,0.8c-0.2,0.2-3.1,5.3-3.3,5.7l2.9,0.9l3.4-3.1c2-1.9,3.5-0.9,4.6-2.1l-1.1-0.2
	c-0.1,0,0.2,0.6-1.3-0.4c-0.3,0-0.9,0-1.2,0.1c-1.2,0.4-0.4,0.1-0.9,0.8l0.7,0c-1.6,0.5-2.6,1.6-4.5,2.1c0.1-0.6,0.1-0.4,0.3-0.8
	c0-0.1,0.4-0.6,0.4-0.7l4.7-4.4c1.9-2,1.3-1,2.5-2.1c2.3-2.1,6.2-2.7,9.1-2.1c5,1,5.7,2.6,6.3,0.5c-0.6-0.8-0.7-0.8-1.7-1l0.6,0.1
	c-0.5-0.8,0-0.2-0.7-0.7c0,0-0.8-0.3-0.8-0.3c-0.8-0.3-1-0.3-1.9-0.4L177.6,33.6z M150.1,33c0,0.1,1.4,2.8,1.7,3.6
	c1.4,3.8,0.8,5.7,0.9,9.5l1.5,0.2c1.1-2-0.6-6.5-1.2-9c-0.4-1.6-0.8-3-1.2-4.5c-0.6-2.1-0.4-2.7-2.5-3.1c0.2,1.2,0.5,0.7,0.8,1.6
	C150.9,33.2,149.9,31.5,150.1,33z"/>
</svg>
